<svg width="17" height="17" viewBox="0 0 17 17" fill="none" xmlns="http://www.w3.org/2000/svg">
<path d="M8.49996 1.41666C4.58996 1.41666 1.41663 4.58999 1.41663 8.49999C1.41663 12.41 4.58996 15.5833 8.49996 15.5833C12.41 15.5833 15.5833 12.41 15.5833 8.49999C15.5833 4.58999 12.41 1.41666 8.49996 1.41666ZM8.49996 14.1667C5.37621 14.1667 2.83329 11.6237 2.83329 8.49999C2.83329 5.37624 5.37621 2.83332 8.49996 2.83332C11.6237 2.83332 14.1666 5.37624 14.1666 8.49999C14.1666 11.6237 11.6237 14.1667 8.49996 14.1667ZM11.7512 5.36916L7.08329 10.0371L5.24871 8.20957L4.24996 9.20832L7.08329 12.0417L12.75 6.37499L11.7512 5.36916Z" fill="#4A934A"/>
</svg>
