<svg width="503" height="273" viewBox="0 0 503 273" fill="none" xmlns="http://www.w3.org/2000/svg">
<path d="M9.96 111.5V27.5H51C61.56 27.5 69.48 29.5 74.76 33.5C80.12 37.5 82.8 42.78 82.8 49.34C82.8 53.74 81.72 57.58 79.56 60.86C77.4 64.06 74.44 66.54 70.68 68.3C66.92 70.06 62.6 70.94 57.72 70.94L60 66.02C65.28 66.02 69.96 66.9 74.04 68.66C78.12 70.34 81.28 72.86 83.52 76.22C85.84 79.58 87 83.7 87 88.58C87 95.78 84.16 101.42 78.48 105.5C72.8 109.5 64.44 111.5 53.4 111.5H9.96ZM29.28 96.86H51.96C57 96.86 60.8 96.06 63.36 94.46C66 92.78 67.32 90.14 67.32 86.54C67.32 83.02 66 80.42 63.36 78.74C60.8 76.98 57 76.1 51.96 76.1H27.84V61.94H48.6C53.32 61.94 56.92 61.14 59.4 59.54C61.96 57.86 63.24 55.34 63.24 51.98C63.24 48.7 61.96 46.26 59.4 44.66C56.92 42.98 53.32 42.14 48.6 42.14H29.28V96.86ZM210.487 112.94C203.847 112.94 197.687 111.86 192.007 109.7C186.407 107.54 181.527 104.5 177.367 100.58C173.287 96.66 170.087 92.06 167.767 86.78C165.527 81.5 164.407 75.74 164.407 69.5C164.407 63.26 165.527 57.5 167.767 52.22C170.087 46.94 173.327 42.34 177.487 38.42C181.647 34.5 186.527 31.46 192.127 29.3C197.727 27.14 203.807 26.06 210.367 26.06C217.007 26.06 223.087 27.14 228.607 29.3C234.207 31.46 239.047 34.5 243.127 38.42C247.287 42.34 250.527 46.94 252.847 52.22C255.167 57.42 256.327 63.18 256.327 69.5C256.327 75.74 255.167 81.54 252.847 86.9C250.527 92.18 247.287 96.78 243.127 100.7C239.047 104.54 234.207 107.54 228.607 109.7C223.087 111.86 217.047 112.94 210.487 112.94ZM210.367 96.38C214.127 96.38 217.567 95.74 220.687 94.46C223.887 93.18 226.687 91.34 229.087 88.94C231.487 86.54 233.327 83.7 234.607 80.42C235.967 77.14 236.647 73.5 236.647 69.5C236.647 65.5 235.967 61.86 234.607 58.58C233.327 55.3 231.487 52.46 229.087 50.06C226.767 47.66 224.007 45.82 220.807 44.54C217.607 43.26 214.127 42.62 210.367 42.62C206.607 42.62 203.127 43.26 199.927 44.54C196.807 45.82 194.047 47.66 191.647 50.06C189.247 52.46 187.367 55.3 186.007 58.58C184.727 61.86 184.087 65.5 184.087 69.5C184.087 73.42 184.727 77.06 186.007 80.42C187.367 83.7 189.207 86.54 191.527 88.94C193.927 91.34 196.727 93.18 199.927 94.46C203.127 95.74 206.607 96.38 210.367 96.38ZM288.337 92.3L287.257 69.86L327.457 27.5H349.057L312.817 66.5L302.017 78.02L288.337 92.3ZM270.937 111.5V27.5H290.257V111.5H270.937ZM328.417 111.5L298.537 74.9L311.257 61.1L351.097 111.5H328.417ZM27.36 247.5V179.34H0.48V163.5H73.68V179.34H46.8V247.5H27.36ZM186.093 247.5V163.5H205.533V247.5H186.093ZM225.468 247.5V163.5H241.548L277.308 222.78H268.788L303.948 163.5H319.908L320.148 247.5H301.908L301.788 191.46H305.148L277.068 238.62H268.308L239.628 191.46H243.708V247.5H225.468ZM357.957 197.34H398.397V212.46H357.957V197.34ZM359.397 231.9H405.117V247.5H340.077V163.5H403.557V179.1H359.397V231.9Z" fill="#15110F"/>
<rect x="98.5" y="34" width="55" height="205" rx="27.5" stroke="black" stroke-width="15"/>
</svg>
