<svg width="500" height="338" viewBox="0 0 500 338" fill="none" xmlns="http://www.w3.org/2000/svg">
<rect y="5.82117" width="46.8341" height="332.692" rx="12" transform="rotate(-6 0 5.82117)" fill="#B8336A"/>
<path d="M21.5855 25.3723L23.0743 25.1895L23.1319 25.659C23.1607 25.893 23.212 26.0785 23.2861 26.2154C23.363 26.3519 23.463 26.4556 23.5862 26.5263C23.7125 26.5995 23.8653 26.6552 24.0446 26.6933L24.341 26.7642L30.189 22.8519L30.4217 24.7468L26.4085 27.3089L30.8813 28.49L31.1108 30.3594L23.7823 28.2282C23.4431 28.1238 23.1233 27.9899 22.8227 27.8265C22.5225 27.6658 22.2691 27.4436 22.0625 27.1599C21.856 26.8761 21.7236 26.4974 21.6654 26.0237L21.5855 25.3723ZM22.5075 31.9031L29.0042 31.1054L29.2254 32.9072L26.7046 33.2167L26.7669 33.7243L29.5048 35.1827L29.7645 37.2975L26.2596 35.3966L23.271 38.1206L23.0082 35.9804L25.1165 34.0944L25.0339 33.4219L22.7288 33.7049L22.5075 31.9031ZM20.9282 39.1811L29.8611 38.0842L30.0792 39.8607L28.988 39.9947L28.9979 40.075C29.1824 40.1325 29.374 40.2249 29.5728 40.3522C29.7748 40.4819 29.9513 40.6606 30.1023 40.8882C30.2565 41.1183 30.356 41.4152 30.4006 41.779C30.4588 42.2527 30.3884 42.705 30.1894 43.1359C29.9933 43.5664 29.6618 43.9319 29.1949 44.2326C28.7309 44.5328 28.1267 44.7287 27.3823 44.8201C26.6576 44.909 26.0313 44.8671 25.5035 44.6944C24.9789 44.5241 24.5636 44.2545 24.2579 43.8856C23.9553 43.5192 23.7737 43.0893 23.7131 42.5958C23.6702 42.2462 23.6915 41.9416 23.7769 41.6821C23.8628 41.4254 23.9836 41.2088 24.1394 41.0322C24.298 40.8553 24.4625 40.7149 24.6329 40.611L24.6262 40.556L21.1494 40.9829L20.9282 39.1811ZM26.8293 40.2468C26.443 40.2943 26.1126 40.3892 25.8382 40.5317C25.5637 40.6741 25.3586 40.8567 25.2228 41.0795C25.0898 41.3019 25.0412 41.5583 25.0768 41.8488C25.1128 42.142 25.2237 42.3803 25.4093 42.5636C25.5978 42.7465 25.8422 42.8725 26.1427 42.9415C26.4463 43.013 26.787 43.0255 27.1648 42.9791C27.5398 42.9331 27.8633 42.8404 28.1353 42.7011C28.4073 42.5618 28.6112 42.3808 28.747 42.158C28.8828 41.9353 28.9325 41.6759 28.8962 41.3798C28.8602 41.0865 28.7521 40.8479 28.5721 40.664C28.3925 40.4828 28.1537 40.3561 27.8557 40.2839C27.5578 40.2118 27.2156 40.1994 26.8293 40.2468ZM24.3947 48.2867C24.3438 47.8722 24.3703 47.494 24.4743 47.1521C24.5811 46.8098 24.7653 46.5267 25.0269 46.3028C25.2917 46.0814 25.6384 45.9444 26.067 45.8917C26.4279 45.8474 26.7392 45.8765 27.0008 45.9789C27.2623 46.0813 27.4819 46.2375 27.6594 46.4476C27.8369 46.6576 27.9815 46.9032 28.0933 47.1843C28.2054 47.4682 28.2968 47.7689 28.3672 48.0866C28.4531 48.4596 28.5272 48.7596 28.5894 48.9867C28.6544 49.2134 28.7286 49.3746 28.8119 49.4703C28.8952 49.5659 29.006 49.6053 29.1441 49.5883L29.1695 49.5852C29.4374 49.5523 29.6342 49.4423 29.7601 49.2551C29.8863 49.0707 29.9305 48.8249 29.8928 48.5175C29.853 48.1932 29.7494 47.9441 29.582 47.77C29.4175 47.5956 29.2243 47.4905 29.0024 47.4548L28.9331 45.7717C29.3382 45.8078 29.6999 45.9323 30.0179 46.1451C30.3388 46.3576 30.6009 46.6503 30.8041 47.0232C31.0105 47.3985 31.1455 47.8456 31.2092 48.3645C31.2535 48.7254 31.2537 49.076 31.2096 49.4163C31.1658 49.7594 31.0709 50.0702 30.9248 50.3486C30.779 50.6298 30.5757 50.8623 30.3149 51.046C30.0569 51.2294 29.7347 51.3448 29.3484 51.3922L24.9666 51.9302L24.7568 50.2215L25.6577 50.1109L25.6514 50.0601C25.4356 49.9807 25.2394 49.8631 25.0629 49.7073C24.8891 49.5512 24.7435 49.3558 24.626 49.1213C24.5112 48.8863 24.4342 48.6081 24.3947 48.2867ZM25.7016 48.65C25.7341 48.9151 25.815 49.1427 25.9443 49.3329C26.0763 49.5228 26.2397 49.6644 26.4344 49.7579C26.629 49.8513 26.8405 49.884 27.0689 49.856L27.7584 49.7714C27.7148 49.7195 27.6714 49.6461 27.6283 49.5512C27.5883 49.4588 27.5482 49.3535 27.5079 49.2354C27.4705 49.1169 27.4345 48.9982 27.3998 48.8794C27.368 48.7603 27.339 48.6522 27.3128 48.5552C27.2558 48.3476 27.1838 48.1689 27.0967 48.0193C27.0097 47.8697 26.903 47.7583 26.7766 47.6851C26.6531 47.6115 26.5068 47.5851 26.3376 47.6059C26.0923 47.636 25.9156 47.7479 25.8078 47.9415C25.703 48.1375 25.6676 48.3737 25.7016 48.65ZM25.1382 53.3281L31.6349 52.5304L31.8561 54.3322L25.3594 55.1299L25.1382 53.3281ZM32.4758 52.0365C32.4461 51.794 32.505 51.5749 32.6527 51.3793C32.8033 51.1834 32.9956 51.0711 33.2296 51.0423C33.4693 51.0129 33.683 51.0754 33.8709 51.2298C34.0587 51.3842 34.1675 51.5826 34.1973 51.8251C34.2274 52.0704 34.1697 52.2879 34.0241 52.4775C33.8788 52.6699 33.6864 52.7809 33.4467 52.8103C33.2127 52.839 32.9991 52.778 32.8059 52.6271C32.616 52.4787 32.506 52.2818 32.4758 52.0365ZM32.7937 54.625C32.7639 54.3825 32.8229 54.1634 32.9706 53.9679C33.1211 53.7719 33.3134 53.6596 33.5474 53.6308C33.7871 53.6014 34.0009 53.6639 34.1887 53.8183C34.3765 53.9727 34.4853 54.1711 34.5151 54.4136C34.5452 54.6589 34.4875 54.8764 34.3419 55.066C34.1967 55.2584 34.0042 55.3694 33.7645 55.3988C33.5305 55.4275 33.3169 55.3665 33.1238 55.2156C32.9338 55.0672 32.8238 54.8703 32.7937 54.625ZM30.0592 60.6076L28.6423 60.7816L28.2258 57.3894L29.6427 57.2155L30.0592 60.6076ZM32.2447 57.497L25.748 58.2947L25.5367 56.5733L32.0333 55.7756L32.2447 57.497ZM32.7272 61.4263L26.2305 62.224L26.0207 60.5153L32.5173 59.7176L32.7272 61.4263ZM26.6357 66.5728C26.5539 65.9074 26.6246 65.3177 26.8478 64.8037C27.074 64.2922 27.4238 63.8771 27.897 63.5586C28.3706 63.2428 28.9359 63.0446 29.5929 62.9639C30.2583 62.8822 30.8578 62.9389 31.3912 63.1338C31.9278 63.3313 32.3663 63.651 32.7068 64.0929C33.0501 64.5344 33.2621 65.0837 33.3428 65.7407C33.4123 66.3075 33.3704 66.8164 33.2168 67.2674C33.0632 67.7185 32.8156 68.0909 32.4739 68.3848C32.1321 68.6786 31.7118 68.869 31.2131 68.956L31.0043 67.2557C31.3227 67.168 31.5679 67.0091 31.74 66.779C31.9153 66.5514 31.9827 66.2727 31.9422 65.9427C31.9079 65.6636 31.8018 65.429 31.6239 65.2391C31.4492 65.0516 31.2109 64.9177 30.9091 64.8374C30.6073 64.7571 30.252 64.742 29.8431 64.7922C29.4286 64.8431 29.0831 64.9428 28.8065 65.0913C28.5303 65.2425 28.3288 65.4318 28.2022 65.6592C28.0755 65.8866 28.0293 66.1398 28.0636 66.419C28.0889 66.6248 28.1539 66.8043 28.2585 66.9575C28.3636 67.1134 28.503 67.2351 28.6769 67.3226C28.8539 67.4124 29.0587 67.4603 29.2913 67.4661L29.5001 69.1664C29.0003 69.1991 28.5467 69.1174 28.139 68.9213C27.7346 68.7277 27.4006 68.4324 27.1372 68.0354C26.8738 67.6384 26.7066 67.1509 26.6357 66.5728ZM31.8994 71.1891L32.1378 73.1305C32.2434 73.9905 32.1199 74.6869 31.7675 75.2196C31.4178 75.752 30.9004 76.0602 30.2152 76.1444C29.7697 76.1991 29.3644 76.1386 28.9994 75.9631C28.6372 75.7872 28.3365 75.5064 28.0974 75.1207C27.8611 74.7347 27.7078 74.2555 27.6375 73.6831L27.2604 70.6124L33.7571 69.8147L33.9685 71.5361L28.8887 72.1599L29.0544 73.5091C29.0914 73.8108 29.198 74.0496 29.3742 74.2255C29.5504 74.4013 29.757 74.4761 29.9942 74.4499C30.2448 74.4162 30.4372 74.2924 30.5712 74.0785C30.708 73.8642 30.7579 73.6062 30.7209 73.3045L30.4825 71.3631L31.8994 71.1891ZM28.1202 77.6145L34.6169 76.8168L34.8381 78.6186L32.3173 78.9281L32.3796 79.4357L35.1175 80.8941L35.3772 83.0089L31.8722 81.108L28.8836 83.832L28.6208 81.6918L30.7291 79.8058L30.6466 79.1333L28.3414 79.4163L28.1202 77.6145ZM29.0819 86.461C29.031 86.0464 29.0576 85.6682 29.1615 85.3263C29.2684 84.984 29.4526 84.701 29.7142 84.4771C29.9789 84.2556 30.3256 84.1186 30.7542 84.066C31.1151 84.0217 31.4264 84.0507 31.688 84.1531C31.9496 84.2555 32.1691 84.4118 32.3466 84.6218C32.5241 84.8319 32.6687 85.0774 32.7805 85.3585C32.8927 85.6424 32.984 85.9432 33.0545 86.2608C33.1403 86.6338 33.2144 86.9339 33.2766 87.1609C33.3416 87.3876 33.4158 87.5488 33.4991 87.6445C33.5824 87.7402 33.6932 87.7795 33.8313 87.7626L33.8567 87.7595C34.1246 87.7266 34.3214 87.6165 34.4473 87.4293C34.5735 87.245 34.6177 86.9991 34.58 86.6918C34.5402 86.3675 34.4366 86.1183 34.2692 85.9442C34.1047 85.7698 33.9115 85.6647 33.6896 85.629L33.6203 83.9459C34.0255 83.9821 34.3871 84.1065 34.7051 84.3193C35.026 84.5318 35.2881 84.8245 35.4913 85.1974C35.6977 85.5728 35.8327 86.0199 35.8964 86.5387C35.9407 86.8996 35.9409 87.2503 35.8968 87.5905C35.853 87.9337 35.7581 88.2444 35.612 88.5228C35.4662 88.8041 35.2629 89.0365 35.0021 89.2203C34.7441 89.4036 34.4219 89.519 34.0356 89.5665L29.6538 90.1045L29.444 88.3957L30.3449 88.2851L30.3386 88.2344C30.1228 88.155 29.9266 88.0374 29.7501 87.8816C29.5763 87.7255 29.4307 87.5301 29.3132 87.2955C29.1985 87.0606 29.1214 86.7824 29.0819 86.461ZM30.3888 86.8243C30.4213 87.0893 30.5022 87.317 30.6315 87.5072C30.7635 87.697 30.9269 87.8387 31.1216 87.9321C31.3162 88.0256 31.5278 88.0583 31.7562 88.0303L32.4456 87.9456C32.402 87.8937 32.3586 87.8203 32.3155 87.7254C32.2755 87.633 32.2354 87.5278 32.1952 87.4096C32.1577 87.2912 32.1217 87.1725 32.087 87.0537C32.0552 86.9345 32.0262 86.8264 32 86.7295C31.943 86.5218 31.871 86.3432 31.7839 86.1936C31.6969 86.044 31.5902 85.9326 31.4638 85.8594C31.3403 85.7858 31.194 85.7594 31.0248 85.7802C30.7795 85.8103 30.6029 85.9221 30.495 86.1157C30.3902 86.3118 30.3548 86.5479 30.3888 86.8243ZM30.1171 93.8784L31.5457 93.6944L31.5722 93.9101C31.5909 94.0623 31.6437 94.189 31.7305 94.2899C31.8204 94.3934 31.9545 94.4714 32.1327 94.5239C32.3109 94.5764 32.5422 94.6067 32.8265 94.6147C33.1137 94.6224 33.464 94.608 33.8774 94.5716L36.7665 94.3242L37.3731 99.2643L30.8764 100.062L30.6656 98.3448L35.7453 97.7211L35.5485 96.1181L33.5523 96.2601C33.005 96.3016 32.5288 96.2928 32.1237 96.2338C31.7189 96.1776 31.3797 96.0718 31.1059 95.9165C30.8349 95.7609 30.6241 95.5592 30.4734 95.3115C30.3228 95.0638 30.2262 94.7666 30.1836 94.4197L30.1171 93.8784ZM31.0479 101.459L37.5446 100.661L37.7658 102.463L31.2692 103.261L31.0479 101.459ZM38.4932 101.463C38.4603 101.196 38.5209 100.955 38.675 100.741C38.8323 100.53 39.0364 100.409 39.2873 100.378C39.5355 100.348 39.76 100.416 39.9608 100.583C40.1648 100.753 40.2832 100.972 40.3161 101.24C40.349 101.508 40.2868 101.747 40.1296 101.958C39.9755 102.172 39.7744 102.294 39.5262 102.324C39.2753 102.355 39.0478 102.286 38.8438 102.116C38.6429 101.949 38.5261 101.731 38.4932 101.463ZM36.4846 103.742L37.9015 103.568L38.6244 109.456L37.2075 109.63L36.9504 107.536L31.8707 108.16L31.6598 106.442L36.7396 105.819L36.4846 103.742ZM32.4699 114.089C32.3879 113.421 32.4526 112.829 32.6641 112.314C32.8787 111.801 33.2197 111.384 33.6869 111.063C34.157 110.742 34.7346 110.54 35.4198 110.455C36.0881 110.373 36.6905 110.431 37.2271 110.629C37.7637 110.826 38.2019 111.143 38.5417 111.579C38.8818 112.018 39.091 112.556 39.1692 113.194C39.2219 113.622 39.2018 114.03 39.109 114.416C39.0193 114.805 38.8547 115.154 38.6151 115.464C38.3759 115.777 38.0585 116.036 37.6631 116.242C37.2704 116.448 36.7978 116.585 36.2451 116.653L35.7503 116.713L35.0767 111.227L36.1933 111.09L36.6586 114.88C36.918 114.848 37.1409 114.764 37.3273 114.626C37.5136 114.489 37.6509 114.313 37.7391 114.099C37.8305 113.888 37.8601 113.651 37.8279 113.388C37.7943 113.115 37.7011 112.88 37.5482 112.684C37.3985 112.491 37.2107 112.348 36.9846 112.255C36.7614 112.163 36.5214 112.131 36.2644 112.159L35.2028 112.29C34.8814 112.329 34.6109 112.422 34.3914 112.57C34.1722 112.72 34.0127 112.912 33.9128 113.148C33.813 113.383 33.7815 113.652 33.8186 113.954C33.8432 114.154 33.8939 114.334 33.9707 114.493C34.0475 114.653 34.1496 114.785 34.2769 114.889C34.4042 114.994 34.5535 115.067 34.7246 115.109L34.8193 116.789C34.4085 116.754 34.0376 116.623 33.7065 116.397C33.3786 116.174 33.1061 115.867 32.8892 115.476C32.6755 115.087 32.5357 114.625 32.4699 114.089ZM30.6711 118.53L39.604 117.434L39.8221 119.21L38.7309 119.344L38.7407 119.424C38.9253 119.482 39.1169 119.574 39.3157 119.702C39.5177 119.831 39.6942 120.01 39.8452 120.238C39.9994 120.468 40.0988 120.765 40.1435 121.128C40.2017 121.602 40.1313 122.054 39.9323 122.485C39.7361 122.916 39.4046 123.281 38.9378 123.582C38.4738 123.882 37.8696 124.078 37.1251 124.169C36.4005 124.258 35.7742 124.217 35.2464 124.044C34.7217 123.874 34.3065 123.604 34.0008 123.235C33.6982 122.869 33.5166 122.439 33.456 121.945C33.4131 121.596 33.4343 121.291 33.5198 121.031C33.6057 120.775 33.7265 120.558 33.8823 120.382C34.0409 120.205 34.2054 120.064 34.3758 119.96L34.369 119.905L30.8923 120.332L30.6711 118.53ZM36.5722 119.596C36.1859 119.644 35.8555 119.739 35.5811 119.881C35.3066 120.024 35.1015 120.206 34.9657 120.429C34.8327 120.651 34.7841 120.908 34.8197 121.198C34.8557 121.491 34.9666 121.73 35.1522 121.913C35.3407 122.096 35.5851 122.222 35.8855 122.291C36.1891 122.362 36.5299 122.375 36.9077 122.329C37.2827 122.283 37.6062 122.19 37.8782 122.051C38.1502 121.911 38.3541 121.73 38.4899 121.507C38.6257 121.285 38.6754 121.025 38.639 120.729C38.603 120.436 38.495 120.197 38.315 120.013C38.1353 119.832 37.8965 119.706 37.5986 119.633C37.3006 119.561 36.9585 119.549 36.5722 119.596ZM34.1376 127.636C34.0867 127.222 34.1132 126.843 34.2172 126.501C34.324 126.159 34.5082 125.876 34.7698 125.652C35.0346 125.431 35.3813 125.294 35.8099 125.241C36.1708 125.197 36.4821 125.226 36.7436 125.328C37.0052 125.431 37.2248 125.587 37.4023 125.797C37.5798 126.007 37.7244 126.253 37.8362 126.534C37.9483 126.818 38.0396 127.118 38.1101 127.436C38.196 127.809 38.27 128.109 38.3323 128.336C38.3973 128.563 38.4715 128.724 38.5548 128.82C38.6381 128.915 38.7488 128.955 38.887 128.938L38.9124 128.935C39.1803 128.902 39.3771 128.792 39.503 128.605C39.6292 128.42 39.6734 128.174 39.6357 127.867C39.5958 127.543 39.4923 127.293 39.3249 127.119C39.1604 126.945 38.9672 126.84 38.7452 126.804L38.676 125.121C39.0811 125.157 39.4427 125.282 39.7608 125.495C40.0817 125.707 40.3438 126 40.547 126.373C40.7534 126.748 40.8884 127.195 40.9521 127.714C40.9964 128.075 40.9965 128.425 40.9525 128.766C40.9087 129.109 40.8138 129.42 40.6676 129.698C40.5218 129.979 40.3186 130.212 40.0577 130.395C39.7998 130.579 39.4776 130.694 39.0913 130.742L34.7095 131.28L34.4996 129.571L35.4005 129.46L35.3943 129.41C35.1785 129.33 34.9823 129.213 34.8057 129.057C34.632 128.901 34.4864 128.705 34.3688 128.471C34.2541 128.236 34.177 127.958 34.1376 127.636ZM35.4444 127.999C35.477 128.264 35.5579 128.492 35.6871 128.682C35.8192 128.872 35.9826 129.014 36.1772 129.107C36.3719 129.201 36.5834 129.233 36.8118 129.205L37.5012 129.121C37.4577 129.069 37.4143 128.995 37.3712 128.901C37.3312 128.808 37.2911 128.703 37.2508 128.585C37.2134 128.466 37.1773 128.348 37.1427 128.229C37.1109 128.11 37.0819 128.002 37.0557 127.905C36.9987 127.697 36.9267 127.518 36.8396 127.369C36.7526 127.219 36.6459 127.108 36.5195 127.035C36.396 126.961 36.2496 126.935 36.0805 126.955C35.8351 126.985 35.6585 127.097 35.5506 127.291C35.4459 127.487 35.4105 127.723 35.4444 127.999ZM39.8807 131.401L41.2976 131.227L42.0206 137.115L40.6036 137.289L40.3466 135.195L35.2668 135.819L35.056 134.102L40.1357 133.478L39.8807 131.401ZM33.3583 140.417C33.3303 140.188 33.3223 139.972 33.3344 139.767C33.344 139.565 33.3676 139.396 33.4053 139.26L34.8001 139.501C34.7612 139.72 34.7494 139.915 34.7645 140.085C34.78 140.258 34.8376 140.401 34.9375 140.515C35.0376 140.631 35.1941 140.716 35.4068 140.77L35.6947 140.842L42.0913 137.691L42.324 139.586L37.7181 141.517L37.7264 141.585L42.6641 142.357L42.8984 144.264L35.3895 142.623C35.025 142.545 34.7002 142.417 34.4152 142.24C34.1277 142.067 33.894 141.831 33.7143 141.532C33.5317 141.234 33.413 140.862 33.3583 140.417ZM34.0787 146.283L43.0116 145.186L43.2297 146.963L42.1384 147.097L42.1483 147.177C42.3328 147.234 42.5245 147.327 42.7233 147.454C42.9253 147.584 43.1018 147.763 43.2528 147.99C43.407 148.22 43.5064 148.517 43.5511 148.881C43.6093 149.355 43.5389 149.807 43.3399 150.238C43.1437 150.668 42.8122 151.034 42.3454 151.334C41.8814 151.635 41.2771 151.831 40.5327 151.922C39.8081 152.011 39.1818 151.969 38.654 151.796C38.1293 151.626 37.7141 151.356 37.4083 150.988C37.1058 150.621 36.9242 150.191 36.8636 149.698C36.8206 149.348 36.8419 149.044 36.9274 148.784C37.0132 148.527 37.1341 148.311 37.2898 148.134C37.4484 147.957 37.6129 147.817 37.7834 147.713L37.7766 147.658L34.2999 148.085L34.0787 146.283ZM39.9798 147.349C39.5935 147.396 39.2631 147.491 38.9887 147.634C38.7142 147.776 38.5091 147.959 38.3733 148.181C38.2403 148.404 38.1916 148.66 38.2273 148.951C38.2633 149.244 38.3741 149.482 38.5598 149.665C38.7483 149.848 38.9927 149.974 39.2931 150.043C39.5967 150.115 39.9374 150.127 40.3153 150.081C40.6903 150.035 41.0138 149.942 41.2858 149.803C41.5578 149.664 41.7617 149.483 41.8975 149.26C42.0333 149.037 42.083 148.778 42.0466 148.482C42.0106 148.188 41.9026 147.95 41.7226 147.766C41.5429 147.585 41.3041 147.458 41.0062 147.386C40.7082 147.314 40.3661 147.301 39.9798 147.349ZM37.5452 155.389C37.4943 154.974 37.5208 154.596 37.6248 154.254C37.7316 153.912 37.9158 153.629 38.1774 153.405C38.4422 153.183 38.7889 153.046 39.2175 152.994C39.5784 152.949 39.8896 152.978 40.1512 153.081C40.4128 153.183 40.6324 153.339 40.8098 153.549C40.9873 153.76 41.132 154.005 41.2438 154.286C41.3559 154.57 41.4472 154.871 41.5177 155.189C41.6036 155.562 41.6776 155.862 41.7399 156.089C41.8049 156.315 41.8791 156.477 41.9624 156.572C42.0457 156.668 42.1564 156.707 42.2946 156.69L42.32 156.687C42.5878 156.654 42.7847 156.544 42.9106 156.357C43.0367 156.173 43.081 155.927 43.0432 155.619C43.0034 155.295 42.8998 155.046 42.7325 154.872C42.568 154.697 42.3747 154.592 42.1528 154.557L42.0836 152.874C42.4887 152.91 42.8503 153.034 43.1684 153.247C43.4893 153.459 43.7514 153.752 43.9546 154.125C44.1609 154.5 44.296 154.948 44.3597 155.466C44.404 155.827 44.4041 156.178 44.36 156.518C44.3163 156.861 44.2214 157.172 44.0752 157.451C43.9294 157.732 43.7261 157.964 43.4653 158.148C43.2073 158.331 42.8852 158.447 42.4989 158.494L38.117 159.032L37.9072 157.323L38.8081 157.213L38.8019 157.162C38.5861 157.083 38.3899 156.965 38.2133 156.809C38.0396 156.653 37.894 156.458 37.7764 156.223C37.6617 155.988 37.5846 155.71 37.5452 155.389ZM38.852 155.752C38.8846 156.017 38.9655 156.245 39.0947 156.435C39.2268 156.625 39.3902 156.766 39.5848 156.86C39.7795 156.953 39.991 156.986 40.2194 156.958L40.9088 156.873C40.8652 156.821 40.8219 156.748 40.7788 156.653C40.7388 156.561 40.6987 156.455 40.6584 156.337C40.621 156.219 40.5849 156.1 40.5503 155.981C40.5185 155.862 40.4895 155.754 40.4633 155.657C40.4063 155.449 40.3343 155.271 40.2472 155.121C40.1601 154.972 40.0534 154.86 39.9271 154.787C39.8036 154.713 39.6572 154.687 39.488 154.708C39.2427 154.738 39.0661 154.85 38.9582 155.043C38.8535 155.239 38.8181 155.476 38.852 155.752Z" fill="white"/>
<path d="M56.1197 309.746L59.6025 305.288L56.6248 305.654L54.7968 290.766L52.8117 291.009L54.6397 305.898L51.6621 306.263L56.1197 309.746Z" fill="white"/>
<rect x="380.832" y="4.61011" width="46.8341" height="333.212" rx="12" transform="rotate(-4 380.832 4.61011)" fill="#7F7EFF"/>
<path d="M401.254 23.9085L404.816 23.5969L404.868 24.187C405.029 24.3753 405.249 24.5414 405.527 24.6853C405.808 24.829 406.187 24.9399 406.664 25.0179C407.144 25.0957 407.766 25.1268 408.529 25.1114L412.227 25.036L412.73 30.7882L405.5 31.4207L405.584 32.3716L402.03 32.6825L401.876 30.9165L403.965 30.7338L403.506 25.491L401.409 25.6745L401.254 23.9085ZM405.053 26.3095L405.346 29.6547L411.06 29.1548L410.856 26.8242L408.683 26.8774C408.106 26.8909 407.591 26.8746 407.139 26.8286C406.688 26.7854 406.29 26.719 405.945 26.6293C405.604 26.5422 405.307 26.4357 405.053 26.3095ZM406.751 35.1024L411.091 37.0882L411.247 38.8711L404.726 39.4416L404.576 37.7181L408.723 37.3552L404.371 35.379L404.214 33.5833L410.734 33.0128L410.886 34.7406L406.751 35.1024ZM409.894 39.7905L411.316 39.666L411.833 45.5753L410.411 45.6997L410.228 43.5984L405.129 44.0444L404.978 42.3209L410.077 41.8748L409.894 39.7905ZM405.743 51.0627L410.846 50.6163L410.739 49.3937C410.71 49.0626 410.611 48.8174 410.443 48.6581C410.276 48.4988 410.087 48.4298 409.878 48.4509C409.665 48.4667 409.493 48.5645 409.36 48.7443C409.231 48.9268 409.18 49.1821 409.209 49.5104L409.37 51.3528L408.148 51.4598L407.986 49.6174C407.938 49.0598 407.98 48.5699 408.115 48.1475C408.249 47.7251 408.458 47.3903 408.741 47.143C409.027 46.8956 409.373 46.7555 409.778 46.7229C410.202 46.683 410.584 46.7594 410.923 46.9521C411.265 47.1447 411.543 47.4383 411.757 47.8331C411.975 48.2304 412.108 48.7093 412.157 49.2696L412.411 52.1776L405.891 52.748L405.743 51.0627ZM405.381 46.9194L408.935 48.435L409.086 50.1628L405.532 48.6515L405.381 46.9194ZM413.029 59.2415L406.509 59.812L406.359 58.0969L412.879 57.5264L413.029 59.2415ZM410.095 58.6555L408.668 58.7803C408.594 58.6471 408.519 58.4796 408.445 58.278C408.373 58.0761 408.31 57.8634 408.256 57.64C408.203 57.4166 408.167 57.2058 408.15 57.0077C408.068 56.0709 408.196 55.3168 408.534 54.7455C408.874 54.1738 409.469 53.8509 410.318 53.7766L412.543 53.582L412.692 55.2885L410.467 55.4831C410.215 55.5052 410.02 55.5651 409.88 55.6628C409.74 55.7635 409.646 55.9114 409.598 56.1067C409.553 56.3046 409.544 56.5635 409.572 56.8833C409.598 57.1804 409.654 57.4692 409.742 57.7496C409.829 58.03 409.947 58.332 410.095 58.6555ZM406.671 63.0862C406.635 62.6702 406.674 62.2931 406.79 61.955C406.909 61.6167 407.103 61.3402 407.372 61.1256C407.644 60.9135 407.996 60.7887 408.426 60.7511C408.788 60.7194 409.098 60.7593 409.356 60.8707C409.614 60.9822 409.828 61.146 409.998 61.3621C410.168 61.5782 410.304 61.8287 410.406 62.1135C410.508 62.4012 410.589 62.7049 410.648 63.0248C410.721 63.4006 410.784 63.703 410.839 63.9321C410.896 64.161 410.964 64.3247 411.044 64.4232C411.124 64.5217 411.233 64.5649 411.372 64.5528L411.398 64.5505C411.666 64.527 411.867 64.4239 411.999 64.2412C412.132 64.0614 412.185 63.8172 412.158 63.5087C412.129 63.1833 412.034 62.9306 411.873 62.7508C411.715 62.5708 411.525 62.459 411.305 62.4156L411.294 60.7311C411.698 60.7813 412.055 60.9183 412.366 61.1421C412.679 61.3657 412.931 61.6673 413.121 62.0471C413.314 62.4294 413.433 62.881 413.479 63.4017C413.51 63.764 413.498 64.1144 413.442 64.4529C413.387 64.7943 413.281 65.1016 413.125 65.3747C412.97 65.6507 412.758 65.8759 412.491 66.0504C412.227 66.2247 411.901 66.3288 411.513 66.3627L407.115 66.7475L406.965 65.0324L407.87 64.9533L407.865 64.9024C407.652 64.8155 407.46 64.6911 407.289 64.5293C407.121 64.3672 406.982 64.1669 406.873 63.9283C406.767 63.6895 406.699 63.4088 406.671 63.0862ZM407.964 63.4949C407.988 63.7609 408.061 63.9912 408.183 64.1859C408.308 64.3802 408.467 64.5275 408.658 64.6277C408.849 64.7279 409.06 64.7679 409.289 64.7479L409.981 64.6873C409.939 64.6339 409.898 64.5591 409.858 64.4628C409.822 64.369 409.785 64.2624 409.749 64.1429C409.716 64.0232 409.684 63.9034 409.654 63.7834C409.626 63.6632 409.601 63.5542 409.578 63.4564C409.528 63.2469 409.462 63.0658 409.381 62.9133C409.299 62.7607 409.196 62.6457 409.072 62.5681C408.952 62.4903 408.806 62.4588 408.636 62.4736C408.39 62.4952 408.21 62.6008 408.095 62.7905C407.984 62.9827 407.94 63.2176 407.964 63.4949ZM407.447 70.5352L408.881 70.4012L408.9 70.6177C408.913 70.7705 408.961 70.8989 409.045 71.0028C409.131 71.1093 409.262 71.192 409.439 71.2507C409.615 71.3094 409.845 71.3477 410.129 71.3657C410.415 71.3834 410.766 71.3812 411.18 71.3592L414.076 71.2128L414.51 76.1711L407.99 76.7416L407.839 75.0181L412.937 74.572L412.797 72.9631L410.797 73.0354C410.248 73.0577 409.773 73.0323 409.37 72.9592C408.967 72.8889 408.632 72.7714 408.364 72.6066C408.098 72.4416 407.895 72.2327 407.753 71.9799C407.611 71.7271 407.525 71.4267 407.494 71.0786L407.447 70.5352ZM408.112 78.1436L414.633 77.5731L414.791 79.3815L408.271 79.952L408.112 78.1436ZM415.553 78.408C415.529 78.1392 415.598 77.9007 415.76 77.6927C415.924 77.4872 416.133 77.3734 416.384 77.3514C416.634 77.3296 416.855 77.4057 417.05 77.5798C417.248 77.7564 417.359 77.9791 417.383 78.2479C417.406 78.5168 417.336 78.754 417.171 78.9594C417.01 79.1675 416.804 79.2824 416.555 79.3042C416.303 79.3262 416.079 79.2489 415.881 79.0723C415.686 78.8983 415.576 78.6769 415.553 78.408ZM413.466 80.615L414.888 80.4906L415.405 86.3998L413.983 86.5242L413.799 84.4229L408.701 84.8689L408.55 83.1454L413.648 82.6994L413.466 80.615ZM409.093 90.8159C409.034 90.1451 409.119 89.5559 409.349 89.0482C409.581 88.5431 409.936 88.1384 410.415 87.8342C410.896 87.5298 411.48 87.3474 412.168 87.2873C412.838 87.2286 413.438 87.3073 413.968 87.5233C414.497 87.7394 414.924 88.0713 415.248 88.5192C415.573 88.9699 415.763 89.515 415.819 90.1546C415.857 90.5848 415.823 90.9913 415.716 91.3742C415.613 91.7597 415.436 92.1031 415.186 92.4045C414.936 92.7087 414.61 92.9568 414.208 93.1488C413.808 93.3406 413.331 93.4608 412.776 93.5093L412.279 93.5528L411.798 88.0468L412.918 87.9488L413.251 91.7524C413.512 91.7297 413.737 91.6529 413.928 91.5221C414.119 91.3913 414.263 91.2205 414.358 91.0097C414.457 90.8014 414.495 90.5657 414.472 90.3025C414.448 90.028 414.363 89.7901 414.217 89.589C414.074 89.3905 413.891 89.2411 413.669 89.1408C413.449 89.0402 413.21 88.9998 412.952 89.0195L411.887 89.1127C411.564 89.141 411.291 89.2248 411.066 89.3642C410.842 89.5064 410.676 89.6935 410.568 89.9254C410.46 90.1573 410.419 90.4247 410.445 90.7275C410.463 90.9284 410.507 91.1099 410.578 91.2719C410.65 91.4339 410.747 91.5694 410.871 91.6784C410.994 91.7873 411.141 91.8658 411.31 91.9137L411.346 93.5959C410.937 93.5462 410.571 93.4028 410.248 93.1659C409.928 92.9315 409.666 92.615 409.463 92.2164C409.263 91.8204 409.14 91.3536 409.093 90.8159ZM407.14 95.1916L416.106 94.4072L416.262 96.1902L415.166 96.286L415.174 96.3667C415.356 96.4306 415.544 96.5296 415.738 96.6637C415.936 96.8005 416.106 96.9852 416.249 97.2179C416.395 97.4533 416.484 97.7535 416.516 98.1185C416.558 98.594 416.471 99.0436 416.258 99.4672C416.046 99.8906 415.702 100.244 415.225 100.529C414.751 100.812 414.14 100.987 413.393 101.052C412.666 101.116 412.042 101.052 411.52 100.861C411.002 100.673 410.596 100.389 410.303 100.01C410.014 99.6328 409.847 99.1968 409.804 98.7015C409.773 98.3506 409.805 98.0469 409.9 97.7905C409.994 97.537 410.123 97.3247 410.285 97.1537C410.449 96.9825 410.619 96.8479 410.793 96.75L410.788 96.6948L407.298 97.0001L407.14 95.1916ZM413 96.4627C412.613 96.4966 412.279 96.58 412 96.7128C411.721 96.8456 411.509 97.0209 411.366 97.2388C411.225 97.4564 411.167 97.711 411.193 98.0025C411.219 98.2968 411.321 98.5388 411.5 98.7285C411.682 98.9179 411.922 99.0523 412.22 99.1318C412.521 99.2138 412.861 99.2382 413.24 99.2051C413.617 99.1721 413.943 99.0908 414.22 98.9611C414.497 98.8314 414.707 98.6576 414.85 98.4397C414.994 98.2218 415.052 97.9643 415.026 97.6671C415.001 97.3728 414.901 97.1305 414.728 96.9404C414.554 96.7531 414.32 96.6181 414.025 96.5356C413.73 96.4531 413.388 96.4288 413 96.4627ZM410.287 104.413C410.25 103.997 410.29 103.62 410.406 103.282C410.524 102.943 410.718 102.667 410.988 102.452C411.26 102.24 411.611 102.115 412.041 102.078C412.404 102.046 412.714 102.086 412.972 102.197C413.229 102.309 413.443 102.473 413.613 102.689C413.784 102.905 413.919 103.155 414.021 103.44C414.124 103.728 414.204 104.031 414.264 104.351C414.336 104.727 414.4 105.03 414.454 105.259C414.511 105.487 414.58 105.651 414.66 105.75C414.74 105.848 414.849 105.891 414.988 105.879L415.013 105.877C415.282 105.854 415.483 105.75 415.615 105.568C415.747 105.388 415.8 105.144 415.773 104.835C415.745 104.51 415.65 104.257 415.489 104.077C415.33 103.897 415.141 103.786 414.92 103.742L414.91 102.058C415.314 102.108 415.671 102.245 415.981 102.469C416.294 102.692 416.546 102.994 416.736 103.374C416.929 103.756 417.049 104.208 417.094 104.728C417.126 105.09 417.114 105.441 417.058 105.779C417.002 106.121 416.896 106.428 416.741 106.701C416.585 106.977 416.374 107.202 416.107 107.377C415.843 107.551 415.517 107.655 415.129 107.689L410.731 108.074L410.581 106.359L411.485 106.28L411.481 106.229C411.268 106.142 411.076 106.018 410.905 105.856C410.737 105.694 410.598 105.493 410.489 105.255C410.382 105.016 410.315 104.735 410.287 104.413ZM411.58 104.821C411.603 105.087 411.676 105.318 411.799 105.512C411.924 105.707 412.082 105.854 412.274 105.954C412.465 106.054 412.675 106.094 412.904 106.074L413.596 106.014C413.555 105.96 413.514 105.886 413.474 105.789C413.437 105.696 413.401 105.589 413.365 105.469C413.332 105.35 413.3 105.23 413.269 105.11C413.242 104.99 413.216 104.881 413.194 104.783C413.144 104.573 413.078 104.392 412.996 104.24C412.915 104.087 412.812 103.972 412.688 103.895C412.567 103.817 412.422 103.785 412.252 103.8C412.006 103.822 411.825 103.927 411.711 104.117C411.599 104.309 411.556 104.544 411.58 104.821ZM415.895 108.376L417.317 108.252L417.834 114.161L416.412 114.285L416.228 112.184L411.13 112.63L410.979 110.907L416.077 110.461L415.895 108.376ZM409.062 117.158C409.042 116.929 409.041 116.712 409.061 116.508C409.077 116.307 409.107 116.139 409.149 116.004L410.535 116.294C410.488 116.511 410.469 116.706 410.479 116.876C410.488 117.049 410.541 117.194 410.637 117.311C410.733 117.431 410.886 117.522 411.097 117.583L411.382 117.665L417.885 114.739L418.051 116.641L413.381 118.41L413.386 118.478L418.294 119.422L418.462 121.336L411.015 119.434C410.653 119.343 410.333 119.204 410.054 119.018C409.773 118.834 409.548 118.59 409.379 118.285C409.207 117.981 409.101 117.605 409.062 117.158ZM409.577 123.046L418.543 122.262L418.699 124.045L417.603 124.141L417.61 124.221C417.793 124.285 417.981 124.384 418.175 124.518C418.373 124.655 418.543 124.84 418.686 125.072C418.832 125.308 418.921 125.608 418.953 125.973C418.995 126.449 418.908 126.898 418.694 127.322C418.483 127.745 418.139 128.099 417.662 128.383C417.188 128.667 416.577 128.842 415.83 128.907C415.103 128.971 414.479 128.907 413.957 128.716C413.439 128.527 413.033 128.243 412.74 127.864C412.451 127.487 412.284 127.051 412.241 126.556C412.21 126.205 412.242 125.901 412.337 125.645C412.431 125.392 412.56 125.179 412.722 125.008C412.886 124.837 413.056 124.702 413.229 124.604L413.225 124.549L409.735 124.855L409.577 123.046ZM415.437 124.317C415.05 124.351 414.716 124.435 414.437 124.567C414.158 124.7 413.946 124.875 413.803 125.093C413.662 125.311 413.604 125.566 413.63 125.857C413.656 126.151 413.758 126.393 413.937 126.583C414.119 126.772 414.359 126.907 414.657 126.986C414.958 127.068 415.298 127.093 415.677 127.06C416.054 127.027 416.38 126.945 416.657 126.816C416.934 126.686 417.144 126.512 417.287 126.294C417.431 126.076 417.489 125.819 417.463 125.522C417.438 125.227 417.338 124.985 417.164 124.795C416.991 124.608 416.757 124.473 416.462 124.39C416.166 124.308 415.825 124.283 415.437 124.317ZM412.724 132.267C412.687 131.851 412.727 131.474 412.843 131.136C412.961 130.798 413.155 130.521 413.425 130.307C413.697 130.095 414.048 129.97 414.478 129.932C414.841 129.9 415.151 129.94 415.409 130.052C415.666 130.163 415.88 130.327 416.05 130.543C416.22 130.759 416.356 131.01 416.458 131.295C416.561 131.582 416.641 131.886 416.701 132.206C416.773 132.582 416.837 132.884 416.891 133.113C416.948 133.342 417.017 133.506 417.097 133.604C417.177 133.703 417.286 133.746 417.425 133.734L417.45 133.732C417.719 133.708 417.92 133.605 418.052 133.422C418.184 133.242 418.237 132.998 418.21 132.69C418.182 132.364 418.087 132.112 417.926 131.932C417.767 131.752 417.578 131.64 417.357 131.597L417.347 129.912C417.751 129.962 418.108 130.099 418.418 130.323C418.731 130.547 418.983 130.848 419.173 131.228C419.366 131.61 419.486 132.062 419.531 132.583C419.563 132.945 419.551 133.295 419.495 133.634C419.439 133.975 419.333 134.283 419.178 134.556C419.022 134.832 418.811 135.057 418.544 135.231C418.28 135.406 417.954 135.51 417.566 135.544L413.168 135.929L413.018 134.213L413.922 134.134L413.918 134.083C413.705 133.997 413.513 133.872 413.342 133.71C413.174 133.548 413.035 133.348 412.926 133.109C412.819 132.871 412.752 132.59 412.724 132.267ZM414.017 132.676C414.04 132.942 414.113 133.172 414.236 133.367C414.361 133.561 414.519 133.709 414.711 133.809C414.902 133.909 415.112 133.949 415.341 133.929L416.033 133.868C415.992 133.815 415.951 133.74 415.911 133.644C415.874 133.55 415.838 133.443 415.802 133.324C415.768 133.204 415.737 133.084 415.706 132.964C415.679 132.844 415.653 132.735 415.63 132.637C415.581 132.428 415.515 132.247 415.433 132.094C415.351 131.942 415.249 131.827 415.125 131.749C415.004 131.671 414.859 131.64 414.689 131.655C414.443 131.676 414.262 131.782 414.148 131.972C414.036 132.164 413.993 132.399 414.017 132.676Z" fill="white"/>
<path d="M426.786 312.597L430.346 308.201L427.362 308.514L425.794 293.596L423.805 293.805L425.373 308.723L422.39 309.037L426.786 312.597Z" fill="white"/>
<rect x="224.414" y="5.4939" width="46.8341" height="332.309" rx="12" transform="rotate(-5 224.414 5.4939)" fill="#08B2E3"/>
<path d="M246.537 28.8721L249.944 25.6946L249.878 25.0674L246.178 25.4562L245.985 23.6212L254.665 22.7089L254.858 24.544L251.391 24.9084L251.43 25.2771L255.199 27.7946L255.439 30.0789L251.057 27.1158L246.776 31.1479L246.537 28.8721ZM251.321 36.1495L249.902 36.2987L249.544 32.8998L250.964 32.7506L251.321 36.1495ZM253.561 33.0775L247.051 33.7617L246.87 32.0368L253.379 31.3526L253.561 33.0775ZM253.975 37.0146L247.465 37.6988L247.285 35.9867L253.795 35.3025L253.975 37.0146ZM250.175 40.574L254.549 42.4838L254.736 44.2638L248.227 44.948L248.046 43.2273L252.187 42.7921L247.801 40.8922L247.612 39.0995L254.122 38.4153L254.303 40.1402L250.175 40.574ZM255.357 50.1695L253.937 50.3187L253.653 47.6148L248.563 48.1498L248.379 46.3952L254.889 45.7111L255.357 50.1695ZM251.526 53.429L255.901 55.3388L256.088 57.1187L249.578 57.8029L249.397 56.0823L253.538 55.6471L249.152 53.7471L248.963 51.9545L255.473 51.2703L255.654 52.9952L251.526 53.429ZM248.136 65.3598L259.027 64.215L259.217 66.0162L248.325 67.161L248.136 65.3598ZM250.221 65.1407C250.168 64.6406 250.201 64.1758 250.318 63.7464C250.439 63.3167 250.632 62.9365 250.897 62.6058C251.165 62.2748 251.495 62.0059 251.888 61.799C252.283 61.5917 252.728 61.4621 253.222 61.4102C253.722 61.3576 254.186 61.3917 254.613 61.5125C255.042 61.6331 255.421 61.8275 255.749 62.0958C256.08 62.3638 256.348 62.6956 256.552 63.0911C256.76 63.4864 256.89 63.9341 256.942 64.4342L256.977 64.769L250.256 65.4755L250.221 65.1407ZM251.628 64.9928L251.649 65.192L255.556 64.7813L255.535 64.5821C255.51 64.3391 255.436 64.1283 255.314 63.9497C255.193 63.7711 255.036 63.6262 254.845 63.5149C254.656 63.4033 254.439 63.3261 254.195 63.2833C253.95 63.2432 253.691 63.2376 253.417 63.2664C253.056 63.3044 252.733 63.3984 252.449 63.5482C252.167 63.6977 251.951 63.8962 251.8 64.1434C251.652 64.3904 251.594 64.6735 251.628 64.9928ZM250.41 66.9418L250.375 66.607L257.096 65.9005L257.131 66.2354C257.184 66.7354 257.15 67.2003 257.03 67.6301C256.912 68.0595 256.719 68.4397 256.451 68.7707C256.186 69.1013 255.856 69.3703 255.46 69.5775C255.068 69.7844 254.622 69.9142 254.122 69.9667C253.627 70.0187 253.165 69.9844 252.735 69.8639C252.308 69.7431 251.929 69.5487 251.598 69.2807C251.27 69.0124 251.003 68.6806 250.795 68.2853C250.591 67.8897 250.463 67.4419 250.41 66.9418ZM251.817 66.7939C251.843 67.0369 251.915 67.2478 252.033 67.4268C252.155 67.6054 252.312 67.7503 252.503 67.8615C252.695 67.9728 252.912 68.05 253.153 68.0932C253.398 68.136 253.656 68.1432 253.927 68.1147C254.291 68.0764 254.614 67.9811 254.895 67.8287C255.179 67.6788 255.397 67.4817 255.549 67.2373C255.7 66.9928 255.759 66.7081 255.724 66.3832L255.704 66.184L251.796 66.5947L251.817 66.7939ZM251.201 74.4675C251.131 73.7979 251.206 73.2072 251.426 72.6956C251.65 72.1865 251.998 71.7757 252.471 71.4632C252.946 71.1504 253.527 70.9579 254.214 70.8858C254.883 70.8154 255.485 70.8836 256.018 71.0904C256.551 71.2971 256.983 71.6216 257.316 72.0637C257.648 72.5087 257.848 73.0504 257.915 73.689C257.96 74.1184 257.933 74.5255 257.833 74.9102C257.737 75.2974 257.566 75.6438 257.321 75.9495C257.077 76.258 256.755 76.5118 256.356 76.7108C255.96 76.9096 255.485 77.0381 254.931 77.0963L254.435 77.1484L253.857 71.6517L254.976 71.5341L255.375 75.3313C255.635 75.304 255.859 75.2233 256.048 75.0892C256.237 74.9551 256.377 74.7818 256.469 74.5693C256.564 74.3594 256.598 74.123 256.57 73.8603C256.542 73.5862 256.452 73.3499 256.303 73.1514C256.157 72.9554 255.971 72.8092 255.747 72.7128C255.525 72.6161 255.286 72.5798 255.029 72.604L253.965 72.7158C253.643 72.7497 253.371 72.8383 253.149 72.9816C252.927 73.1277 252.764 73.3177 252.66 73.5514C252.556 73.7852 252.52 74.0532 252.552 74.3555C252.573 74.5561 252.62 74.7368 252.694 74.8975C252.768 75.0583 252.868 75.1921 252.994 75.2988C253.119 75.4056 253.267 75.4815 253.438 75.5264L253.503 77.2078C253.093 77.1652 252.724 77.0282 252.397 76.797C252.073 76.5682 251.806 76.2564 251.596 75.8614C251.389 75.4689 251.257 75.0043 251.201 74.4675ZM256.217 82.7327L254.798 82.8819L254.44 79.483L255.86 79.3338L256.217 82.7327ZM258.457 79.6608L251.947 80.345L251.766 78.6201L258.276 77.9359L258.457 79.6608ZM258.871 83.5979L252.361 84.2821L252.181 82.5699L258.691 81.8857L258.871 83.5979ZM257.529 84.4941L258.949 84.3448L259.569 90.2442L258.149 90.3934L257.929 88.2956L252.839 88.8305L252.658 87.1099L257.748 86.5749L257.529 84.4941ZM253.335 94.7697C253.264 94.1001 253.339 93.5095 253.56 92.9978C253.783 92.4887 254.132 92.0779 254.604 91.7654C255.08 91.4526 255.661 91.2602 256.348 91.188C257.017 91.1176 257.619 91.1858 258.152 91.3926C258.685 91.5994 259.117 91.9238 259.449 92.366C259.782 92.8109 259.982 93.3527 260.049 93.9912C260.094 94.4207 260.067 94.8277 259.967 95.2124C259.871 95.5996 259.7 95.946 259.455 96.2517C259.21 96.5602 258.889 96.814 258.49 97.0131C258.093 97.2118 257.618 97.3403 257.065 97.3985L256.569 97.4506L255.991 91.9539L257.11 91.8363L257.509 95.6336C257.769 95.6062 257.993 95.5255 258.182 95.3914C258.371 95.2573 258.511 95.084 258.603 94.8716C258.698 94.6616 258.732 94.4253 258.704 94.1625C258.675 93.8885 258.586 93.6522 258.437 93.4536C258.291 93.2576 258.105 93.1114 257.881 93.015C257.659 92.9183 257.42 92.8821 257.162 92.9063L256.099 93.0181C255.777 93.0519 255.505 93.1405 255.282 93.2838C255.061 93.43 254.898 93.6199 254.794 93.8536C254.69 94.0874 254.654 94.3554 254.686 94.6577C254.707 94.8583 254.754 95.039 254.828 95.1998C254.902 95.3605 255.002 95.4943 255.128 95.6011C255.253 95.7079 255.401 95.7837 255.571 95.8286L255.637 97.51C255.227 97.4674 254.858 97.3305 254.531 97.0992C254.207 96.8704 253.94 96.5586 253.73 96.1636C253.523 95.7712 253.391 95.3065 253.335 94.7697ZM255.708 98.3937L255.892 100.144C255.678 100.175 255.519 100.289 255.414 100.486C255.309 100.682 255.272 100.926 255.302 101.217C255.333 101.511 255.427 101.751 255.584 101.938C255.743 102.124 255.951 102.203 256.209 102.176C256.367 102.159 256.5 102.105 256.607 102.014C256.718 101.923 256.799 101.803 256.852 101.654C256.905 101.506 256.922 101.338 256.902 101.152L256.804 100.215L257.986 100.091L258.085 101.028C258.114 101.307 258.202 101.515 258.347 101.651C258.493 101.79 258.664 101.849 258.859 101.829C259.079 101.806 259.247 101.708 259.363 101.536C259.483 101.366 259.528 101.149 259.501 100.883C259.472 100.615 259.388 100.398 259.248 100.233C259.111 100.07 258.946 99.9959 258.753 100.01L258.57 98.2686C258.961 98.2333 259.311 98.3151 259.62 98.5139C259.93 98.7156 260.183 99.0032 260.379 99.3768C260.576 99.7532 260.7 100.184 260.751 100.67C260.807 101.201 260.78 101.667 260.67 102.067C260.564 102.47 260.385 102.788 260.133 103.023C259.88 103.261 259.565 103.4 259.187 103.44C258.842 103.476 258.542 103.393 258.286 103.192C258.031 102.99 257.832 102.691 257.691 102.295L257.623 102.302C257.634 102.572 257.588 102.822 257.483 103.053C257.379 103.284 257.222 103.476 257.013 103.63C256.806 103.783 256.551 103.875 256.249 103.907C255.845 103.95 255.486 103.867 255.173 103.66C254.861 103.456 254.605 103.154 254.406 102.756C254.21 102.359 254.084 101.894 254.027 101.36C253.973 100.84 253.999 100.366 254.105 99.9377C254.215 99.512 254.403 99.1622 254.672 98.8883C254.94 98.6173 255.286 98.4524 255.708 98.3937ZM254.56 105.204L261.07 104.52L261.259 106.325L254.75 107.01L254.56 105.204ZM262.004 105.339C261.976 105.07 262.041 104.831 262.198 104.62C262.359 104.412 262.566 104.294 262.817 104.268C263.066 104.242 263.289 104.314 263.487 104.484C263.688 104.658 263.802 104.878 263.831 105.147C263.859 105.415 263.793 105.653 263.632 105.862C263.474 106.073 263.271 106.191 263.022 106.217C262.771 106.244 262.544 106.17 262.343 105.997C262.145 105.827 262.032 105.607 262.004 105.339ZM255.192 111.218L261.702 110.534L261.891 112.339L255.382 113.023L255.192 111.218ZM262.636 111.352C262.608 111.084 262.673 110.844 262.831 110.634C262.991 110.425 263.198 110.308 263.449 110.281C263.698 110.255 263.921 110.328 264.119 110.498C264.32 110.671 264.435 110.892 264.463 111.16C264.491 111.429 264.425 111.667 264.264 111.876C264.106 112.086 263.903 112.205 263.654 112.231C263.403 112.257 263.176 112.184 262.975 112.011C262.777 111.84 262.664 111.621 262.636 111.352ZM253.939 120.579L264.831 119.434L265.02 121.235L254.129 122.38L253.939 120.579ZM256.024 120.36C255.972 119.86 256.004 119.395 256.122 118.966C256.243 118.536 256.436 118.156 256.701 117.825C256.969 117.494 257.299 117.225 257.691 117.018C258.087 116.811 258.532 116.681 259.026 116.629C259.526 116.577 259.99 116.611 260.416 116.732C260.846 116.852 261.225 117.047 261.553 117.315C261.884 117.583 262.152 117.915 262.356 118.31C262.563 118.706 262.693 119.153 262.746 119.653L262.781 119.988L256.06 120.695L256.024 120.36ZM257.431 120.212L257.452 120.411L261.36 120.001L261.339 119.801C261.313 119.558 261.24 119.348 261.118 119.169C260.997 118.99 260.84 118.845 260.648 118.734C260.459 118.623 260.243 118.545 259.998 118.503C259.754 118.463 259.495 118.457 259.221 118.486C258.859 118.524 258.536 118.618 258.252 118.767C257.971 118.917 257.755 119.115 257.604 119.363C257.455 119.61 257.398 119.893 257.431 120.212ZM256.214 122.161L256.179 121.826L262.9 121.12L262.935 121.455C262.988 121.955 262.954 122.42 262.833 122.849C262.716 123.279 262.523 123.659 262.255 123.99C261.99 124.321 261.659 124.59 261.264 124.797C260.872 125.004 260.425 125.133 259.925 125.186C259.431 125.238 258.969 125.204 258.539 125.083C258.112 124.962 257.733 124.768 257.402 124.5C257.074 124.232 256.806 123.9 256.599 123.505C256.395 123.109 256.266 122.661 256.214 122.161ZM257.621 122.013C257.646 122.256 257.718 122.467 257.837 122.646C257.959 122.825 258.116 122.97 258.307 123.081C258.499 123.192 258.715 123.269 258.957 123.312C259.202 123.355 259.459 123.362 259.731 123.334C260.095 123.296 260.418 123.2 260.699 123.048C260.983 122.898 261.201 122.701 261.352 122.457C261.504 122.212 261.562 121.927 261.528 121.603L261.507 121.403L257.6 121.814L257.621 122.013ZM256.892 128.576C256.849 128.161 256.882 127.783 256.992 127.443C257.104 127.103 257.294 126.823 257.559 126.603C257.828 126.387 258.177 126.256 258.606 126.211C258.968 126.173 259.278 126.207 259.538 126.314C259.798 126.421 260.015 126.581 260.189 126.794C260.362 127.007 260.503 127.255 260.61 127.538C260.717 127.824 260.803 128.126 260.868 128.445C260.947 128.82 261.016 129.121 261.074 129.349C261.135 129.577 261.207 129.739 261.288 129.836C261.37 129.934 261.48 129.975 261.618 129.96L261.644 129.958C261.912 129.929 262.111 129.823 262.24 129.638C262.369 129.456 262.418 129.211 262.385 128.903C262.351 128.578 262.252 128.327 262.088 128.15C261.926 127.973 261.735 127.864 261.514 127.825L261.474 126.141C261.878 126.184 262.238 126.314 262.552 126.533C262.869 126.751 263.126 127.048 263.323 127.424C263.523 127.803 263.65 128.253 263.704 128.773C263.742 129.134 263.736 129.485 263.686 129.824C263.637 130.167 263.536 130.476 263.385 130.751C263.235 131.03 263.027 131.259 262.763 131.438C262.502 131.617 262.178 131.727 261.791 131.767L257.4 132.229L257.221 130.517L258.123 130.422L258.118 130.371C257.903 130.288 257.709 130.167 257.536 130.008C257.365 129.849 257.222 129.651 257.109 129.414C256.998 129.178 256.926 128.898 256.892 128.576ZM258.193 128.962C258.221 129.228 258.297 129.457 258.423 129.649C258.552 129.841 258.713 129.986 258.906 130.083C259.099 130.179 259.31 130.216 259.539 130.192L260.23 130.119C260.187 130.066 260.145 129.992 260.103 129.897C260.065 129.804 260.027 129.698 259.988 129.579C259.953 129.46 259.919 129.34 259.887 129.221C259.857 129.101 259.83 128.993 259.805 128.895C259.752 128.687 259.683 128.507 259.599 128.356C259.514 128.205 259.409 128.091 259.284 128.016C259.162 127.94 259.016 127.911 258.847 127.929C258.601 127.955 258.422 128.064 258.311 128.255C258.203 128.45 258.163 128.685 258.193 128.962ZM261.999 137.742L260.579 137.891L260.222 134.493L261.642 134.343L261.999 137.742ZM264.239 134.67L257.729 135.354L257.548 133.63L264.057 132.945L264.239 134.67ZM264.652 138.607L258.143 139.292L257.963 137.579L264.472 136.895L264.652 138.607ZM263.311 139.504L264.731 139.354L265.351 145.254L263.931 145.403L263.711 143.305L258.621 143.84L258.44 142.119L263.53 141.584L263.311 139.504ZM259.004 148.668C258.96 148.253 258.994 147.875 259.104 147.535C259.216 147.195 259.405 146.915 259.671 146.696C259.939 146.479 260.288 146.348 260.718 146.303C261.08 146.265 261.39 146.299 261.65 146.406C261.91 146.513 262.127 146.673 262.3 146.887C262.474 147.1 262.614 147.348 262.721 147.631C262.829 147.916 262.915 148.219 262.98 148.538C263.059 148.912 263.128 149.213 263.186 149.441C263.247 149.669 263.318 149.832 263.4 149.929C263.482 150.026 263.592 150.067 263.73 150.053L263.755 150.05C264.024 150.022 264.223 149.915 264.352 149.73C264.481 149.548 264.53 149.303 264.497 148.995C264.463 148.67 264.364 148.419 264.2 148.242C264.038 148.065 263.847 147.957 263.626 147.917L263.586 146.233C263.99 146.276 264.35 146.407 264.664 146.625C264.981 146.843 265.238 147.141 265.435 147.517C265.634 147.896 265.762 148.345 265.816 148.865C265.854 149.227 265.848 149.577 265.798 149.917C265.748 150.259 265.648 150.568 265.497 150.844C265.346 151.123 265.139 151.351 264.875 151.531C264.614 151.709 264.29 151.819 263.903 151.86L259.512 152.321L259.332 150.609L260.235 150.514L260.23 150.463C260.015 150.38 259.821 150.259 259.647 150.1C259.476 149.941 259.334 149.743 259.221 149.507C259.11 149.27 259.038 148.99 259.004 148.668ZM260.304 149.054C260.332 149.32 260.409 149.549 260.535 149.741C260.664 149.934 260.825 150.078 261.018 150.175C261.211 150.272 261.422 150.308 261.651 150.284L262.341 150.212C262.299 150.159 262.257 150.085 262.215 149.989C262.177 149.896 262.138 149.79 262.1 149.671C262.065 149.552 262.031 149.433 261.998 149.313C261.969 149.194 261.942 149.085 261.917 148.988C261.864 148.779 261.795 148.599 261.71 148.448C261.626 148.297 261.521 148.184 261.396 148.108C261.274 148.033 261.128 148.004 260.959 148.022C260.713 148.047 260.534 148.156 260.423 148.348C260.315 148.542 260.275 148.778 260.304 149.054ZM259.841 156.677C259.771 156.01 259.852 155.421 260.084 154.911C260.32 154.404 260.677 153.995 261.155 153.685C261.634 153.377 262.203 153.189 262.861 153.12C263.528 153.05 264.126 153.117 264.656 153.321C265.189 153.528 265.622 153.855 265.955 154.303C266.291 154.75 266.493 155.303 266.562 155.962C266.622 156.53 266.571 157.038 266.41 157.486C266.248 157.934 265.994 158.302 265.647 158.59C265.3 158.878 264.877 159.061 264.377 159.139L264.198 157.436C264.517 157.353 264.765 157.199 264.941 156.972C265.121 156.747 265.193 156.47 265.158 156.139C265.129 155.859 265.027 155.623 264.852 155.43C264.681 155.24 264.445 155.102 264.145 155.016C263.844 154.93 263.489 154.909 263.08 154.952C262.664 154.996 262.317 155.09 262.038 155.233C261.759 155.38 261.554 155.565 261.424 155.79C261.293 156.016 261.243 156.268 261.272 156.548C261.294 156.754 261.355 156.935 261.457 157.089C261.56 157.247 261.697 157.371 261.869 157.462C262.045 157.555 262.249 157.606 262.481 157.616L262.66 159.32C262.16 159.344 261.708 159.254 261.304 159.051C260.903 158.85 260.574 158.549 260.317 158.148C260.061 157.746 259.902 157.256 259.841 156.677ZM265.439 159.748L266.859 159.598L267.479 165.498L266.059 165.647L265.838 163.549L260.749 164.084L260.568 162.363L265.658 161.828L265.439 159.748ZM263.647 168.751L268.021 170.661L268.208 172.441L261.699 173.125L261.518 171.404L265.658 170.969L261.273 169.069L261.084 167.276L267.594 166.592L267.775 168.317L263.647 168.751ZM261.851 174.572L268.361 173.888L268.55 175.693L266.024 175.959L266.078 176.467L268.79 177.973L269.013 180.092L265.541 178.13L262.506 180.802L262.28 178.657L264.421 176.808L264.35 176.135L262.041 176.377L261.851 174.572ZM262.658 183.434C262.614 183.019 262.648 182.641 262.758 182.301C262.87 181.96 263.059 181.681 263.325 181.461C263.593 181.245 263.942 181.114 264.372 181.069C264.734 181.031 265.044 181.065 265.304 181.172C265.564 181.279 265.781 181.439 265.954 181.652C266.128 181.865 266.268 182.113 266.375 182.396C266.483 182.682 266.569 182.984 266.634 183.303C266.713 183.678 266.782 183.979 266.84 184.207C266.901 184.435 266.972 184.597 267.054 184.694C267.136 184.792 267.246 184.833 267.384 184.818L267.409 184.816C267.678 184.787 267.877 184.681 268.006 184.496C268.135 184.314 268.184 184.069 268.151 183.761C268.117 183.436 268.018 183.185 267.854 183.008C267.692 182.831 267.501 182.722 267.28 182.683L267.24 180.998C267.644 181.042 268.004 181.172 268.318 181.391C268.635 181.609 268.892 181.906 269.089 182.282C269.288 182.661 269.416 183.111 269.47 183.631C269.508 183.992 269.502 184.343 269.452 184.682C269.402 185.025 269.302 185.334 269.151 185.609C269 185.888 268.793 186.117 268.529 186.296C268.268 186.475 267.944 186.585 267.557 186.625L263.166 187.087L262.986 185.375L263.889 185.28L263.884 185.229C263.669 185.146 263.475 185.025 263.301 184.866C263.13 184.707 262.988 184.509 262.875 184.272C262.764 184.036 262.692 183.756 262.658 183.434ZM263.958 183.82C263.986 184.086 264.063 184.315 264.189 184.507C264.318 184.699 264.479 184.844 264.672 184.94C264.865 185.037 265.076 185.074 265.305 185.05L265.995 184.977C265.953 184.924 265.911 184.85 265.869 184.755C265.831 184.662 265.792 184.556 265.754 184.437C265.719 184.318 265.685 184.198 265.652 184.079C265.623 183.959 265.596 183.851 265.571 183.753C265.518 183.545 265.449 183.365 265.364 183.214C265.28 183.063 265.175 182.949 265.05 182.874C264.928 182.798 264.782 182.769 264.613 182.787C264.367 182.813 264.188 182.922 264.077 183.113C263.969 183.308 263.929 183.543 263.958 183.82Z" fill="white"/>
<path d="M275.786 311.597L279.346 307.201L276.362 307.514L274.794 292.596L272.805 292.805L274.373 307.723L271.39 308.037L275.786 311.597Z" fill="white"/>
<rect x="120.91" y="0.278198" width="46.8341" height="334.227" rx="12" transform="rotate(7 120.91 0.278198)" fill="#0E7C7B"/>
<path d="M147.233 31.2856L138.614 29.9204L138.899 28.119L146.037 29.2496L146.589 25.7646L139.451 24.634L139.736 22.8326L148.356 24.1978L147.233 31.2856ZM146.726 34.4897L145.817 34.3457C145.559 34.3048 145.303 34.2125 145.049 34.0688C144.798 33.9284 144.567 33.7565 144.355 33.5532C144.145 33.3503 143.973 33.1376 143.839 32.9149L144.431 32.1976C144.631 32.373 144.857 32.5354 145.109 32.6847C145.361 32.8368 145.665 32.941 146.022 32.9975L146.939 33.1428L146.726 34.4897ZM141.261 37.3939L140.213 37.2279L140.586 34.8751L141.634 35.0411L141.261 37.3939ZM141.512 39.949L141.493 38.246C141.814 38.2136 142.084 38.1168 142.302 37.9558C142.52 37.7976 142.657 37.5403 142.714 37.1839C142.764 36.864 142.726 36.5876 142.599 36.3546C142.475 36.1221 142.279 35.9329 142.012 35.787C141.744 35.6439 141.422 35.5426 141.046 35.483C140.667 35.423 140.327 35.4195 140.025 35.4724C139.723 35.5252 139.475 35.6426 139.279 35.8245C139.086 36.0068 138.964 36.2593 138.913 36.582C138.878 36.8064 138.887 37.0035 138.94 37.173C138.996 37.3459 139.085 37.4937 139.207 37.6165C139.331 37.7397 139.476 37.8417 139.641 37.9226L139.104 39.546C138.7 39.3872 138.362 39.151 138.09 38.8375C137.817 38.5268 137.625 38.1584 137.514 37.7324C137.403 37.3092 137.387 36.8493 137.465 36.3526C137.568 35.7073 137.799 35.1744 138.159 34.7539C138.521 34.3367 138.975 34.0418 139.52 33.8693C140.067 33.7 140.666 33.6669 141.317 33.77C141.965 33.8727 142.52 34.0884 142.979 34.4173C143.439 34.7489 143.772 35.1698 143.979 35.6801C144.188 36.1907 144.242 36.7673 144.141 37.4099C144.061 37.915 143.899 38.3539 143.656 38.7267C143.415 39.1028 143.111 39.3955 142.745 39.6049C142.377 39.8171 141.967 39.9318 141.512 39.949ZM136.356 43.3541C136.461 42.6919 136.692 42.1446 137.048 41.712C137.406 41.2827 137.857 40.9801 138.4 40.8043C138.942 40.6313 139.54 40.5966 140.194 40.7002C140.856 40.8051 141.417 41.0247 141.876 41.3592C142.337 41.6969 142.67 42.125 142.876 42.6437C143.084 43.1628 143.137 43.7492 143.033 44.403C142.944 44.967 142.763 45.4446 142.491 45.8359C142.219 46.2271 141.878 46.5169 141.469 46.7051C141.059 46.8934 140.603 46.9606 140.1 46.9067L140.368 45.2148C140.698 45.2182 140.977 45.133 141.206 44.9593C141.437 44.7888 141.579 44.5394 141.631 44.2111C141.675 43.9333 141.638 43.6786 141.519 43.447C141.403 43.2186 141.211 43.0242 140.943 42.8638C140.675 42.7035 140.337 42.5911 139.93 42.5266C139.518 42.4613 139.158 42.4619 138.852 42.5283C138.544 42.5976 138.298 42.724 138.114 42.9077C137.93 43.0913 137.815 43.322 137.771 43.5998C137.739 43.8047 137.752 43.9951 137.81 44.1712C137.868 44.3501 137.969 44.5055 138.112 44.6375C138.257 44.7727 138.441 44.8751 138.663 44.9448L138.395 46.6367C137.906 46.5305 137.492 46.3269 137.154 46.026C136.819 45.7284 136.579 45.3525 136.435 44.8983C136.292 44.4441 136.265 43.9294 136.356 43.3541ZM137.938 49.4971L141.668 52.4739L141.388 54.2416L134.924 53.2177L135.194 51.5089L139.306 52.1602L135.562 49.1898L135.844 47.4094L142.308 48.4334L142.037 50.1464L137.938 49.4971Z" fill="white"/>
<path d="M105.307 312.532L109.884 309.207L106.921 308.738L109.267 293.922L107.292 293.609L104.946 308.425L101.982 307.955L105.307 312.532Z" fill="white"/>
<rect x="333.95" y="0.787964" width="46.8341" height="333.762" rx="12" transform="rotate(6 333.95 0.787964)" fill="#942911"/>
<path d="M353.219 23.1998L361.881 24.2634L361.176 30.0114L359.666 29.826L360.147 25.9094L358.455 25.7017L358.282 27.1101C358.198 27.7953 358.014 28.3724 357.73 28.8413C357.449 29.3134 357.09 29.66 356.653 29.8812C356.217 30.1024 355.725 30.1794 355.178 30.1122C354.634 30.0454 354.17 29.851 353.786 29.5291C353.405 29.2075 353.128 28.7828 352.955 28.255C352.782 27.73 352.737 27.1249 352.821 26.4397L353.219 23.1998ZM354.466 25.2119L354.293 26.6204C354.253 26.9475 354.278 27.2311 354.369 27.4712C354.463 27.7117 354.601 27.9018 354.784 28.0417C354.97 28.1847 355.181 28.2707 355.418 28.2998C355.762 28.3421 356.069 28.2466 356.338 28.0134C356.609 27.7835 356.775 27.4232 356.835 26.9325L357.008 25.5241L354.466 25.2119ZM352.271 30.9241L358.767 31.7218L358.546 33.5236L352.049 32.7259L352.271 30.9241ZM359.494 32.7298C359.527 32.4619 359.644 32.243 359.845 32.0731C360.048 31.9063 360.276 31.8383 360.527 31.8691C360.775 31.8996 360.976 32.0202 361.131 32.2309C361.288 32.4448 361.35 32.6857 361.317 32.9536C361.284 33.2215 361.165 33.4388 360.962 33.6055C360.761 33.7755 360.536 33.8452 360.288 33.8147C360.037 33.7839 359.833 33.6616 359.676 33.4477C359.522 33.2369 359.461 32.9976 359.494 32.7298ZM353.753 34.061L353.539 35.8079C353.323 35.79 353.142 35.8651 352.996 36.0332C352.849 36.2012 352.758 36.4304 352.722 36.7209C352.686 37.0141 352.724 37.2692 352.835 37.486C352.948 37.7032 353.133 37.8275 353.39 37.859C353.548 37.8784 353.689 37.8557 353.815 37.7909C353.943 37.7265 354.049 37.628 354.134 37.4953C354.219 37.3626 354.273 37.2032 354.296 37.0171L354.411 36.0824L355.591 36.2273L355.476 37.162C355.442 37.4412 355.48 37.6634 355.592 37.8288C355.703 37.997 355.856 38.0931 356.05 38.1169C356.27 38.1439 356.456 38.0866 356.608 37.945C356.762 37.8065 356.856 37.6048 356.888 37.3397C356.921 37.0718 356.888 36.8416 356.788 36.6491C356.692 36.4597 356.548 36.3505 356.356 36.3213L356.57 34.5829C356.958 34.6363 357.281 34.7947 357.538 35.0581C357.794 35.3243 357.976 35.6615 358.083 36.0696C358.19 36.4806 358.214 36.9286 358.154 37.4136C358.089 37.9437 357.958 38.3913 357.762 38.7565C357.568 39.1248 357.321 39.395 357.023 39.5673C356.724 39.7424 356.385 39.8067 356.007 39.7603C355.663 39.7181 355.389 39.57 355.186 39.316C354.982 39.062 354.856 38.726 354.807 38.3078L354.74 38.2995C354.69 38.5653 354.588 38.799 354.435 39.0005C354.281 39.2021 354.085 39.354 353.846 39.4564C353.61 39.5591 353.342 39.5919 353.04 39.5548C352.637 39.5053 352.306 39.3445 352.047 39.0723C351.788 38.803 351.607 38.4515 351.503 38.018C351.401 37.5876 351.383 37.106 351.448 36.573C351.512 36.0542 351.644 35.5981 351.844 35.2048C352.046 34.8146 352.309 34.5163 352.632 34.3098C352.955 34.1061 353.328 34.0232 353.753 34.061ZM354.515 45.4472L353.098 45.2732L353.514 41.8811L354.931 42.055L354.515 45.4472ZM357.388 42.9577L350.891 42.16L351.102 40.4386L357.599 41.2363L357.388 42.9577ZM356.905 46.887L350.409 46.0893L350.618 44.3806L357.115 45.1783L356.905 46.887ZM349.747 50.4324C349.829 49.7641 350.035 49.2055 350.365 48.7565C350.697 48.3108 351.129 47.9888 351.659 47.7907C352.193 47.5929 352.803 47.5361 353.488 47.6202C354.156 47.7023 354.727 47.904 355.2 48.2254C355.673 48.5467 356.021 48.9602 356.245 49.4657C356.469 49.9741 356.542 50.5469 356.464 51.1841C356.411 51.6127 356.293 52.0032 356.109 52.3556C355.928 52.7112 355.684 53.0104 355.377 53.2532C355.069 53.4987 354.698 53.6736 354.265 53.7778C353.834 53.8823 353.342 53.9007 352.79 53.8328L352.295 53.772L352.968 48.2863L354.085 48.4234L353.62 52.2131C353.879 52.2449 354.116 52.2168 354.33 52.1285C354.544 52.0403 354.719 51.9031 354.857 51.7167C354.997 51.5335 355.083 51.3108 355.115 51.0486C355.149 50.7751 355.115 50.5248 355.014 50.2977C354.915 50.0738 354.768 49.8897 354.571 49.7453C354.377 49.6012 354.152 49.512 353.895 49.4777L352.834 49.3474C352.512 49.3079 352.227 49.333 351.979 49.4227C351.73 49.5152 351.528 49.6637 351.374 49.868C351.22 50.0724 351.125 50.3254 351.088 50.6271C351.063 50.8273 351.069 51.0141 351.105 51.1874C351.141 51.3606 351.208 51.5134 351.306 51.6457C351.405 51.778 351.532 51.8852 351.688 51.9673L351.373 53.6202C350.983 53.4865 350.655 53.2701 350.388 52.9712C350.124 52.6754 349.934 52.3115 349.818 51.8794C349.705 51.4505 349.681 50.9681 349.747 50.4324ZM348.876 57.5254C348.957 56.8599 349.169 56.3048 349.509 55.8601C349.853 55.4186 350.293 55.1005 350.829 54.9058C351.365 54.714 351.961 54.6585 352.618 54.7391C353.284 54.8208 353.852 55.0208 354.322 55.339C354.795 55.6604 355.143 56.0767 355.366 56.5878C355.593 57.0994 355.666 57.6836 355.585 58.3406C355.515 58.9074 355.351 59.391 355.093 59.7915C354.835 60.192 354.505 60.4935 354.102 60.6959C353.699 60.8984 353.246 60.9814 352.741 60.9452L352.949 59.2449C353.279 59.2368 353.556 59.1419 353.779 58.9603C354.004 58.7819 354.136 58.5277 354.177 58.1978C354.211 57.9186 354.165 57.6654 354.038 57.438C353.914 57.2138 353.715 57.0263 353.442 56.8754C353.169 56.7244 352.828 56.6239 352.419 56.5737C352.004 56.5228 351.645 56.5359 351.34 56.613C351.036 56.693 350.795 56.8279 350.617 57.0179C350.439 57.2079 350.333 57.4424 350.298 57.7216C350.273 57.9274 350.293 58.1173 350.357 58.2912C350.421 58.468 350.527 58.6198 350.675 58.7467C350.825 58.8767 351.012 58.9727 351.236 59.0346L351.028 60.7349C350.535 60.6457 350.114 60.4567 349.766 60.1678C349.421 59.8821 349.168 59.5148 349.009 59.0659C348.849 58.6169 348.805 58.1034 348.876 57.5254ZM349.448 63.6998L348.989 63.5962C348.621 63.5138 348.259 63.3978 347.903 63.2481C347.543 63.1009 347.219 62.9524 346.931 62.8025C346.643 62.6555 346.417 62.5376 346.253 62.4488L346.397 61.2815C346.558 61.3442 346.783 61.4306 347.073 61.5406C347.36 61.6502 347.685 61.7602 348.046 61.8704C348.407 61.9806 348.779 62.0677 349.16 62.1317L349.631 62.211L349.448 63.6998ZM353.724 72.7986L352.307 72.6246L352.638 69.9262L347.558 69.3024L347.773 67.5514L354.27 68.3491L353.724 72.7986ZM344.656 72.8004L353.589 73.8973L353.371 75.6737L352.28 75.5397L352.27 75.6201C352.435 75.7205 352.598 75.8565 352.761 76.0281C352.925 76.2029 353.053 76.4189 353.145 76.6763C353.239 76.9369 353.263 77.249 353.219 77.6128C353.16 78.0865 352.983 78.5083 352.685 78.8782C352.391 79.2485 351.981 79.523 351.455 79.7018C350.932 79.8809 350.299 79.9247 349.554 79.8333C348.829 79.7443 348.232 79.5522 347.762 79.2569C347.294 78.9647 346.956 78.6027 346.749 78.1708C346.544 77.742 346.471 77.2809 346.532 76.7875C346.575 76.4378 346.669 76.1475 346.815 75.9163C346.96 75.688 347.13 75.5071 347.324 75.3734C347.521 75.2402 347.714 75.1437 347.905 75.0841L347.911 75.0291L344.435 74.6022L344.656 72.8004ZM350.124 75.2622C349.738 75.2147 349.394 75.2269 349.093 75.2988C348.793 75.3706 348.549 75.4982 348.364 75.6814C348.181 75.8651 348.072 76.1021 348.036 76.3925C348 76.6858 348.05 76.9438 348.186 77.1666C348.324 77.3897 348.531 77.571 348.806 77.7107C349.083 77.8535 349.411 77.9481 349.788 77.9945C350.164 78.0405 350.5 78.0289 350.797 77.9595C351.095 77.8901 351.337 77.7638 351.522 77.5805C351.708 77.3972 351.819 77.1576 351.855 76.8615C351.891 76.5682 351.844 76.3106 351.714 76.0885C351.584 75.8693 351.383 75.6886 351.111 75.5465C350.839 75.4044 350.51 75.3096 350.124 75.2622ZM345.679 83.5565C345.76 82.8995 345.969 82.3484 346.307 81.9034C346.648 81.4614 347.085 81.1416 347.619 80.9438C348.155 80.7464 348.756 80.6885 349.422 80.7702C350.093 80.8526 350.664 81.0543 351.134 81.3754C351.607 81.6968 351.953 82.1129 352.174 82.6237C352.397 83.1376 352.468 83.7231 352.388 84.3801C352.307 85.0371 352.096 85.5866 351.756 86.0285C351.418 86.4736 350.981 86.7948 350.444 86.9923C349.91 87.1901 349.308 87.2478 348.637 87.1654C347.971 87.0837 347.402 86.8821 346.929 86.5607C346.459 86.2397 346.113 85.8222 345.889 85.3082C345.669 84.7974 345.599 84.2135 345.679 83.5565ZM347.074 83.7363C347.037 84.0352 347.091 84.2951 347.236 84.5161C347.383 84.7374 347.599 84.917 347.883 85.0549C348.166 85.1956 348.496 85.2891 348.874 85.3355C349.252 85.3819 349.595 85.3711 349.904 85.3031C350.213 85.238 350.465 85.1159 350.662 84.9368C350.859 84.7577 350.975 84.5187 351.012 84.2198C351.049 83.9181 350.994 83.6538 350.847 83.4268C350.7 83.2027 350.485 83.0202 350.202 82.8796C349.918 82.7417 349.588 82.6496 349.21 82.6032C348.832 82.5568 348.489 82.5662 348.18 82.6313C347.871 82.6993 347.618 82.8242 347.421 83.0061C347.227 83.1912 347.111 83.4346 347.074 83.7363ZM351.767 88.7389L351.555 90.4604L346.488 89.8382L346.263 91.6696L351.33 92.2918L351.119 94.0132L346.052 93.3911L345.827 95.2225L350.894 95.8447L350.683 97.5661L344.186 96.7684L345.27 87.9412L351.767 88.7389ZM344.015 98.1652L350.511 98.9629L350.29 100.765L343.793 99.967L344.015 98.1652ZM351.238 99.9709C351.27 99.703 351.387 99.4841 351.589 99.3142C351.792 99.1474 352.02 99.0794 352.271 99.1103C352.519 99.1407 352.72 99.2613 352.874 99.4721C353.031 99.686 353.093 99.9268 353.06 100.195C353.028 100.463 352.909 100.68 352.706 100.847C352.504 101.017 352.28 101.086 352.032 101.056C351.781 101.025 351.577 100.903 351.42 100.689C351.265 100.478 351.205 100.239 351.238 99.9709ZM344.56 103.514L344.1 103.41C343.733 103.328 343.371 103.212 343.014 103.062C342.654 102.915 342.33 102.767 342.043 102.617C341.754 102.47 341.528 102.352 341.365 102.263L341.508 101.096C341.669 101.158 341.895 101.245 342.185 101.355C342.472 101.465 342.796 101.574 343.157 101.685C343.519 101.795 343.89 101.882 344.272 101.946L344.743 102.025L344.56 103.514ZM342.394 110.311C342.476 109.643 342.682 109.084 343.012 108.635C343.345 108.189 343.776 107.867 344.307 107.669C344.841 107.471 345.451 107.415 346.136 107.499C346.804 107.581 347.375 107.782 347.848 108.104C348.32 108.425 348.669 108.839 348.893 109.344C349.117 109.853 349.19 110.425 349.111 111.063C349.059 111.491 348.941 111.882 348.757 112.234C348.576 112.59 348.332 112.889 348.024 113.132C347.717 113.377 347.346 113.552 346.912 113.656C346.482 113.761 345.99 113.779 345.437 113.711L344.943 113.65L345.616 108.165L346.733 108.302L346.267 112.092C346.527 112.123 346.764 112.095 346.978 112.007C347.192 111.919 347.367 111.782 347.505 111.595C347.645 111.412 347.731 111.189 347.763 110.927C347.796 110.654 347.763 110.403 347.662 110.176C347.563 109.952 347.416 109.768 347.219 109.624C347.025 109.48 346.799 109.39 346.543 109.356L345.481 109.226C345.16 109.186 344.875 109.211 344.626 109.301C344.378 109.394 344.176 109.542 344.022 109.746C343.868 109.951 343.773 110.204 343.736 110.506C343.711 110.706 343.717 110.893 343.753 111.066C343.789 111.239 343.856 111.392 343.954 111.524C344.052 111.656 344.18 111.764 344.335 111.846L344.021 113.499C343.631 113.365 343.303 113.149 343.036 112.85C342.772 112.554 342.582 112.19 342.466 111.758C342.352 111.329 342.329 110.847 342.394 110.311ZM342.011 114.484L348.507 115.282L348.286 117.084L345.765 116.774L345.703 117.282L348.007 119.359L347.747 121.474L344.806 118.782L341.247 120.702L341.51 118.561L344.012 117.241L344.095 116.569L341.79 116.286L342.011 114.484ZM340.699 124.115C340.78 123.458 340.989 122.907 341.328 122.462C341.668 122.02 342.105 121.7 342.639 121.502C343.175 121.305 343.776 121.247 344.442 121.329C345.113 121.411 345.684 121.613 346.154 121.934C346.627 122.255 346.973 122.672 347.194 123.182C347.417 123.696 347.488 124.282 347.408 124.939C347.327 125.596 347.116 126.145 346.776 126.587C346.438 127.032 346.001 127.354 345.464 127.551C344.93 127.749 344.328 127.806 343.657 127.724C342.991 127.642 342.422 127.441 341.949 127.119C341.479 126.798 341.133 126.381 340.909 125.867C340.689 125.356 340.619 124.772 340.699 124.115ZM342.094 124.295C342.058 124.594 342.111 124.854 342.256 125.075C342.403 125.296 342.619 125.476 342.903 125.614C343.186 125.754 343.516 125.848 343.894 125.894C344.272 125.941 344.615 125.93 344.924 125.862C345.233 125.797 345.485 125.675 345.682 125.495C345.879 125.316 345.995 125.077 346.032 124.779C346.069 124.477 346.014 124.212 345.867 123.985C345.72 123.761 345.505 123.579 345.222 123.438C344.938 123.3 344.608 123.208 344.23 123.162C343.852 123.115 343.509 123.125 343.2 123.19C342.891 123.258 342.638 123.383 342.441 123.565C342.247 123.75 342.131 123.993 342.094 124.295ZM343.702 133.508L342.285 133.335L342.702 129.942L344.119 130.116L343.702 133.508ZM346.575 131.019L340.079 130.221L340.29 128.5L346.787 129.298L346.575 131.019ZM346.093 134.948L339.596 134.151L339.806 132.442L346.303 133.24L346.093 134.948ZM338.937 138.468C339.018 137.811 339.227 137.26 339.565 136.815C339.906 136.373 340.343 136.053 340.877 135.856C341.413 135.658 342.014 135.6 342.68 135.682C343.351 135.764 343.921 135.966 344.391 136.287C344.864 136.609 345.211 137.025 345.432 137.536C345.655 138.049 345.726 138.635 345.645 139.292C345.565 139.949 345.354 140.498 345.014 140.94C344.676 141.385 344.238 141.707 343.702 141.904C343.168 142.102 342.565 142.16 341.894 142.077C341.229 141.995 340.66 141.794 340.187 141.473C339.717 141.152 339.37 140.734 339.147 140.22C338.926 139.709 338.856 139.125 338.937 138.468ZM340.332 138.648C340.295 138.947 340.349 139.207 340.494 139.428C340.641 139.649 340.857 139.829 341.14 139.967C341.424 140.107 341.754 140.201 342.132 140.247C342.51 140.294 342.853 140.283 343.162 140.215C343.471 140.15 343.723 140.028 343.92 139.849C344.116 139.67 344.233 139.431 344.27 139.132C344.307 138.83 344.252 138.566 344.105 138.339C343.958 138.115 343.743 137.932 343.46 137.791C343.176 137.654 342.845 137.561 342.467 137.515C342.09 137.469 341.746 137.478 341.438 137.543C341.129 137.611 340.876 137.736 340.679 137.918C340.485 138.103 340.369 138.346 340.332 138.648ZM340.048 146.938L344.337 149.251L344.168 150.621L337.983 147.29L338.13 146.093L344.93 144.416L344.762 145.782L340.048 146.938ZM344.813 145.372L338.316 144.575L338.528 142.853L345.024 143.651L344.813 145.372ZM337.785 148.901L344.282 149.699L344.073 151.399L337.576 150.602L337.785 148.901ZM337.405 151.995L343.902 152.793L343.68 154.595L337.184 153.797L337.405 151.995ZM344.628 153.801C344.661 153.533 344.778 153.314 344.979 153.144C345.183 152.978 345.41 152.91 345.661 152.94C345.909 152.971 346.11 153.091 346.265 153.302C346.422 153.516 346.484 153.757 346.451 154.025C346.418 154.293 346.3 154.51 346.096 154.677C345.895 154.847 345.67 154.916 345.422 154.886C345.171 154.855 344.967 154.733 344.81 154.519C344.656 154.308 344.595 154.069 344.628 153.801ZM337.007 155.241L343.503 156.038L343.282 157.84L340.761 157.53L340.699 158.038L343.003 160.116L342.743 162.23L339.802 159.538L336.243 161.458L336.506 159.318L339.008 157.998L339.09 157.325L336.785 157.042L337.007 155.241ZM335.8 164.057C335.85 163.642 335.968 163.282 336.151 162.975C336.338 162.669 336.585 162.439 336.893 162.285C337.203 162.134 337.573 162.085 338.002 162.138C338.362 162.182 338.657 162.285 338.887 162.448C339.116 162.611 339.291 162.815 339.412 163.062C339.534 163.309 339.615 163.582 339.655 163.882C339.695 164.185 339.711 164.498 339.703 164.824C339.696 165.206 339.695 165.515 339.7 165.751C339.709 165.987 339.742 166.161 339.799 166.274C339.857 166.387 339.955 166.452 340.093 166.469L340.118 166.472C340.386 166.505 340.604 166.446 340.771 166.294C340.938 166.146 341.041 165.918 341.078 165.611C341.118 165.287 341.078 165.02 340.958 164.81C340.84 164.601 340.678 164.453 340.472 164.364L340.812 162.714C341.196 162.848 341.517 163.056 341.774 163.339C342.034 163.623 342.217 163.97 342.324 164.381C342.434 164.796 342.457 165.262 342.393 165.781C342.349 166.142 342.264 166.482 342.139 166.802C342.013 167.124 341.846 167.402 341.637 167.637C341.427 167.875 341.174 168.051 340.876 168.166C340.582 168.282 340.241 168.316 339.855 168.269L335.473 167.731L335.683 166.022L336.584 166.132L336.59 166.082C336.4 165.952 336.238 165.791 336.104 165.597C335.973 165.403 335.879 165.179 335.822 164.923C335.768 164.667 335.76 164.378 335.8 164.057ZM336.98 164.726C336.947 164.991 336.971 165.231 337.05 165.447C337.132 165.663 337.256 165.84 337.423 165.978C337.589 166.116 337.786 166.198 338.015 166.227L338.704 166.311C338.674 166.25 338.65 166.169 338.631 166.066C338.615 165.967 338.601 165.855 338.591 165.731C338.583 165.607 338.577 165.483 338.572 165.359C338.57 165.236 338.568 165.124 338.566 165.023C338.561 164.808 338.534 164.617 338.486 164.451C338.438 164.285 338.361 164.151 338.256 164.049C338.154 163.948 338.019 163.887 337.849 163.866C337.604 163.836 337.406 163.902 337.254 164.064C337.105 164.229 337.014 164.449 336.98 164.726Z" fill="white"/>
<path d="M323.462 313.406L327.92 309.923L324.942 309.558L326.77 294.67L324.785 294.426L322.957 309.314L319.98 308.948L323.462 313.406Z" fill="white"/>
<rect x="166.891" y="1.24744" width="57" height="334" rx="12" fill="#EA5B3E"/>
<path d="M192.891 23.1661L201.618 23.1661V26.6093C201.618 27.2712 201.491 27.8351 201.239 28.3011C200.989 28.767 200.641 29.1221 200.195 29.3664C199.751 29.6136 199.24 29.7371 198.661 29.7371C198.081 29.7371 197.57 29.6121 197.126 29.3621C196.683 29.1121 196.338 28.7499 196.091 28.2755C195.844 27.8039 195.72 27.2329 195.72 26.5624V24.3678H197.199V26.2641C197.199 26.6192 197.26 26.9119 197.382 27.142C197.507 27.3749 197.679 27.5482 197.898 27.6619C198.119 27.7783 198.374 27.8366 198.661 27.8366C198.95 27.8366 199.203 27.7783 199.419 27.6619C199.638 27.5482 199.807 27.3749 199.926 27.142C200.048 26.909 200.109 26.6136 200.109 26.2556V25.0113H192.891V23.1661ZM192.763 33.7535C192.763 33.0915 192.903 32.5191 193.185 32.0361C193.469 31.556 193.864 31.1853 194.369 30.9239C194.878 30.6626 195.467 30.5319 196.138 30.5319C196.814 30.5319 197.405 30.6626 197.911 30.9239C198.419 31.1853 198.814 31.556 199.095 32.0361C199.379 32.5191 199.521 33.0915 199.521 33.7535C199.521 34.4154 199.379 34.9864 199.095 35.4665C198.814 35.9495 198.419 36.3217 197.911 36.583C197.405 36.8444 196.814 36.9751 196.138 36.9751C195.467 36.9751 194.878 36.8444 194.369 36.583C193.864 36.3217 193.469 35.9495 193.185 35.4665C192.903 34.9864 192.763 34.4154 192.763 33.7535ZM194.169 33.762C194.169 34.0631 194.254 34.3146 194.425 34.5163C194.598 34.718 194.834 34.8699 195.132 34.9722C195.43 35.0773 195.77 35.1299 196.151 35.1299C196.531 35.1299 196.871 35.0773 197.169 34.9722C197.467 34.8699 197.703 34.718 197.876 34.5163C198.05 34.3146 198.136 34.0631 198.136 33.762C198.136 33.458 198.05 33.2023 197.876 32.995C197.703 32.7904 197.467 32.6356 197.169 32.5305C196.871 32.4282 196.531 32.3771 196.151 32.3771C195.77 32.3771 195.43 32.4282 195.132 32.5305C194.834 32.6356 194.598 32.7904 194.425 32.995C194.254 33.2023 194.169 33.458 194.169 33.762ZM194.898 42.0248L199.436 43.7975V45.1782L192.891 42.6256V41.4197L199.436 38.9268V40.3032L194.898 42.0248ZM199.436 39.8898H192.891V38.1555H199.436V39.8898ZM192.891 44.2492H199.436V45.9623H192.891V44.2492ZM192.767 49.2329C192.767 48.8153 192.839 48.4431 192.984 48.1164C193.132 47.7897 193.349 47.5312 193.636 47.3408C193.926 47.1533 194.287 47.0596 194.719 47.0596C195.082 47.0596 195.388 47.1263 195.635 47.2599C195.882 47.3934 196.081 47.5752 196.232 47.8053C196.382 48.0354 196.496 48.2968 196.572 48.5894C196.649 48.8849 196.703 49.1945 196.734 49.5184C196.774 49.8991 196.811 50.2059 196.845 50.4388C196.882 50.6718 196.936 50.8408 197.007 50.9459C197.078 51.0511 197.183 51.1036 197.322 51.1036H197.348C197.618 51.1036 197.827 51.0184 197.974 50.8479C198.122 50.6803 198.196 50.4417 198.196 50.132C198.196 49.8053 198.124 49.5454 197.979 49.3522C197.837 49.159 197.658 49.0312 197.442 48.9687L197.578 47.2897C197.976 47.3749 198.32 47.5425 198.609 47.7925C198.902 48.0425 199.126 48.365 199.283 48.7599C199.442 49.1576 199.521 49.6178 199.521 50.1405C199.521 50.5042 199.479 50.8522 199.393 51.1846C199.308 51.5198 199.176 51.8167 198.997 52.0752C198.818 52.3366 198.588 52.5425 198.307 52.6931C198.028 52.8437 197.695 52.919 197.305 52.919H192.891V51.1974H193.798V51.1462C193.594 51.0411 193.413 50.9005 193.257 50.7244C193.104 50.5482 192.983 50.3366 192.895 50.0894C192.81 49.8423 192.767 49.5567 192.767 49.2329ZM194.02 49.7528C194.02 50.0198 194.072 50.2556 194.178 50.4601C194.286 50.6647 194.43 50.8252 194.612 50.9417C194.794 51.0582 195 51.1164 195.23 51.1164H195.925C195.888 51.0596 195.854 50.9815 195.822 50.882C195.794 50.7854 195.767 50.6761 195.741 50.5539C195.719 50.4317 195.697 50.3096 195.678 50.1874C195.661 50.0653 195.645 49.9545 195.631 49.855C195.599 49.642 195.55 49.4559 195.482 49.2968C195.413 49.1377 195.321 49.0141 195.205 48.9261C195.091 48.838 194.949 48.794 194.778 48.794C194.531 48.794 194.342 48.8834 194.212 49.0624C194.084 49.2442 194.02 49.4744 194.02 49.7528ZM196.888 58.8827H195.46V55.4651H196.888V58.8827ZM199.436 56.0617H192.891V54.3273H199.436V56.0617ZM199.436 60.0205H192.891V58.2989H199.436V60.0205ZM198.009 60.7716H199.436V66.7034H198.009V64.594H192.891V62.8639H198.009V60.7716ZM195.286 69.5383L199.436 71.8948V73.6846H192.891V71.9545H197.054L192.891 69.6065V67.8039H199.436V69.5383H195.286ZM199.436 80.8202H192.891V79.0986H199.436V80.8202ZM196.564 79.9807H195.132C195.07 79.8415 195.01 79.6682 194.953 79.4609C194.899 79.2535 194.855 79.0361 194.821 78.8089C194.787 78.5816 194.77 78.3685 194.77 78.1697C194.77 77.2293 194.963 76.4893 195.349 75.9495C195.739 75.4097 196.359 75.1398 197.212 75.1398H199.445V76.8529H197.212C196.959 76.8529 196.759 76.8955 196.611 76.9807C196.463 77.0688 196.357 77.208 196.291 77.3984C196.229 77.5915 196.197 77.8486 196.197 78.1697C196.197 78.468 196.229 78.7606 196.291 79.0475C196.354 79.3344 196.445 79.6455 196.564 79.9807ZM196.888 86.7851H195.46V83.3675H196.888V86.7851ZM199.436 83.9641H192.891V82.2297H199.436V83.9641ZM199.436 87.9229H192.891V86.2013H199.436V87.9229ZM192.767 91.1977C192.767 90.7801 192.839 90.4079 192.984 90.0812C193.132 89.7545 193.349 89.496 193.636 89.3057C193.926 89.1182 194.287 89.0244 194.719 89.0244C195.082 89.0244 195.388 89.0912 195.635 89.2247C195.882 89.3582 196.081 89.54 196.232 89.7702C196.382 90.0003 196.496 90.2616 196.572 90.5543C196.649 90.8497 196.703 91.1594 196.734 91.4832C196.774 91.8639 196.811 92.1707 196.845 92.4037C196.882 92.6366 196.936 92.8057 197.007 92.9108C197.078 93.0159 197.183 93.0685 197.322 93.0685H197.348C197.618 93.0685 197.827 92.9832 197.974 92.8128C198.122 92.6452 198.196 92.4065 198.196 92.0969C198.196 91.7702 198.124 91.5102 197.979 91.317C197.837 91.1239 197.658 90.996 197.442 90.9335L197.578 89.2545C197.976 89.3398 198.32 89.5074 198.609 89.7574C198.902 90.0074 199.126 90.3298 199.283 90.7247C199.442 91.1224 199.521 91.5827 199.521 92.1054C199.521 92.469 199.479 92.817 199.393 93.1494C199.308 93.4846 199.176 93.7815 198.997 94.04C198.818 94.3014 198.588 94.5074 198.307 94.6579C198.028 94.8085 197.695 94.8838 197.305 94.8838H192.891V93.1622H193.798V93.1111C193.594 93.006 193.413 92.8653 193.257 92.6892C193.104 92.5131 192.983 92.3014 192.895 92.0543C192.81 91.8071 192.767 91.5216 192.767 91.1977ZM194.02 91.7176C194.02 91.9846 194.072 92.2204 194.178 92.425C194.286 92.6295 194.43 92.79 194.612 92.9065C194.794 93.023 195 93.0812 195.23 93.0812H195.925C195.888 93.0244 195.854 92.9463 195.822 92.8469C195.794 92.7503 195.767 92.6409 195.741 92.5187C195.719 92.3966 195.697 92.2744 195.678 92.1523C195.661 92.0301 195.645 91.9193 195.631 91.8199C195.599 91.6068 195.55 91.4207 195.482 91.2616C195.413 91.1025 195.321 90.979 195.205 90.8909C195.091 90.8028 194.949 90.7588 194.778 90.7588C194.531 90.7588 194.342 90.8483 194.212 91.0273C194.084 91.2091 194.02 91.4392 194.02 91.7176ZM192.891 99.0695H199.436V104.793H192.891V103.058H198.009V100.783H192.891V99.0695ZM190.436 106.241H199.436V108.031H198.337V108.112C198.513 108.192 198.692 108.307 198.874 108.457C199.058 108.611 199.212 108.81 199.334 109.054C199.459 109.301 199.521 109.608 199.521 109.974C199.521 110.452 199.396 110.892 199.146 111.295C198.899 111.699 198.526 112.021 198.026 112.263C197.528 112.504 196.905 112.625 196.155 112.625C195.425 112.625 194.808 112.507 194.305 112.271C193.805 112.038 193.426 111.72 193.168 111.317C192.912 110.916 192.784 110.467 192.784 109.97C192.784 109.618 192.842 109.318 192.959 109.071C193.075 108.827 193.222 108.626 193.398 108.47C193.577 108.314 193.757 108.195 193.939 108.112V108.057H190.436V106.241ZM196.163 108.018C195.774 108.018 195.435 108.072 195.145 108.18C194.855 108.288 194.629 108.445 194.467 108.649C194.308 108.854 194.229 109.102 194.229 109.395C194.229 109.69 194.31 109.94 194.472 110.145C194.636 110.349 194.864 110.504 195.153 110.609C195.446 110.717 195.783 110.771 196.163 110.771C196.541 110.771 196.874 110.719 197.161 110.614C197.447 110.508 197.672 110.354 197.834 110.149C197.996 109.945 198.077 109.693 198.077 109.395C198.077 109.099 197.999 108.849 197.842 108.645C197.686 108.443 197.464 108.288 197.178 108.18C196.891 108.072 196.553 108.018 196.163 108.018ZM192.763 116.793C192.763 116.131 192.903 115.558 193.185 115.075C193.469 114.595 193.864 114.224 194.369 113.963C194.878 113.702 195.467 113.571 196.138 113.571C196.814 113.571 197.405 113.702 197.911 113.963C198.419 114.224 198.814 114.595 199.095 115.075C199.379 115.558 199.521 116.131 199.521 116.793C199.521 117.454 199.379 118.025 199.095 118.506C198.814 118.989 198.419 119.361 197.911 119.622C197.405 119.883 196.814 120.014 196.138 120.014C195.467 120.014 194.878 119.883 194.369 119.622C193.864 119.361 193.469 118.989 193.185 118.506C192.903 118.025 192.763 117.454 192.763 116.793ZM194.169 116.801C194.169 117.102 194.254 117.354 194.425 117.555C194.598 117.757 194.834 117.909 195.132 118.011C195.43 118.116 195.77 118.169 196.151 118.169C196.531 118.169 196.871 118.116 197.169 118.011C197.467 117.909 197.703 117.757 197.876 117.555C198.05 117.354 198.136 117.102 198.136 116.801C198.136 116.497 198.05 116.241 197.876 116.034C197.703 115.829 197.467 115.675 197.169 115.57C196.871 115.467 196.531 115.416 196.151 115.416C195.77 115.416 195.43 115.467 195.132 115.57C194.834 115.675 194.598 115.829 194.425 116.034C194.254 116.241 194.169 116.497 194.169 116.801ZM194.744 120.858V122.618C194.528 122.626 194.358 122.723 194.233 122.908C194.108 123.092 194.045 123.331 194.045 123.623C194.045 123.919 194.114 124.168 194.25 124.369C194.389 124.571 194.588 124.672 194.847 124.672C195.006 124.672 195.143 124.632 195.26 124.552C195.379 124.473 195.473 124.362 195.541 124.22C195.609 124.078 195.643 123.913 195.643 123.726V122.784H196.832V123.726C196.832 124.007 196.898 124.223 197.028 124.373C197.159 124.527 197.322 124.604 197.518 124.604C197.74 124.604 197.918 124.524 198.051 124.365C198.188 124.209 198.256 123.997 198.256 123.73C198.256 123.46 198.195 123.236 198.072 123.057C197.953 122.881 197.797 122.79 197.604 122.784V121.033C197.996 121.038 198.335 121.156 198.622 121.386C198.909 121.619 199.131 121.932 199.287 122.324C199.443 122.719 199.521 123.16 199.521 123.649C199.521 124.183 199.446 124.643 199.295 125.03C199.148 125.419 198.936 125.717 198.661 125.925C198.385 126.135 198.057 126.24 197.676 126.24C197.33 126.24 197.04 126.126 196.807 125.899C196.574 125.672 196.408 125.354 196.308 124.945H196.24C196.223 125.214 196.151 125.459 196.023 125.677C195.895 125.896 195.719 126.071 195.494 126.202C195.273 126.332 195.01 126.398 194.706 126.398C194.3 126.398 193.952 126.278 193.662 126.04C193.372 125.804 193.149 125.477 192.993 125.06C192.839 124.645 192.763 124.169 192.763 123.632C192.763 123.109 192.838 122.641 192.989 122.226C193.142 121.814 193.366 121.486 193.662 121.241C193.957 121 194.318 120.872 194.744 120.858ZM192.767 129.377C192.767 128.96 192.839 128.588 192.984 128.261C193.132 127.934 193.349 127.676 193.636 127.485C193.926 127.298 194.287 127.204 194.719 127.204C195.082 127.204 195.388 127.271 195.635 127.404C195.882 127.538 196.081 127.72 196.232 127.95C196.382 128.18 196.496 128.441 196.572 128.734C196.649 129.029 196.703 129.339 196.734 129.663C196.774 130.044 196.811 130.35 196.845 130.583C196.882 130.816 196.936 130.985 197.007 131.09C197.078 131.196 197.183 131.248 197.322 131.248H197.348C197.618 131.248 197.827 131.163 197.974 130.992C198.122 130.825 198.196 130.586 198.196 130.277C198.196 129.95 198.124 129.69 197.979 129.497C197.837 129.304 197.658 129.176 197.442 129.113L197.578 127.434C197.976 127.519 198.32 127.687 198.609 127.937C198.902 128.187 199.126 128.51 199.283 128.904C199.442 129.302 199.521 129.762 199.521 130.285C199.521 130.649 199.479 130.997 199.393 131.329C199.308 131.664 199.176 131.961 198.997 132.22C198.818 132.481 198.588 132.687 198.307 132.838C198.028 132.988 197.695 133.063 197.305 133.063H192.891V131.342H193.798V131.291C193.594 131.186 193.413 131.045 193.257 130.869C193.104 130.693 192.983 130.481 192.895 130.234C192.81 129.987 192.767 129.701 192.767 129.377ZM194.02 129.897C194.02 130.164 194.072 130.4 194.178 130.605C194.286 130.809 194.43 130.97 194.612 131.086C194.794 131.203 195 131.261 195.23 131.261H195.925C195.888 131.204 195.854 131.126 195.822 131.027C195.794 130.93 195.767 130.821 195.741 130.698C195.719 130.576 195.697 130.454 195.678 130.332C195.661 130.21 195.645 130.099 195.631 130C195.599 129.786 195.55 129.6 195.482 129.441C195.413 129.282 195.321 129.159 195.205 129.071C195.091 128.983 194.949 128.938 194.778 128.938C194.531 128.938 194.342 129.028 194.212 129.207C194.084 129.389 194.02 129.619 194.02 129.897Z" fill="white"/>
<path d="M194.391 312.247L198.391 308.247H195.391V293.247H193.391V308.247H190.391L194.391 312.247Z" fill="white"/>
<rect x="451.891" y="1.24744" width="48" height="334" rx="12" fill="#C33149"/>
<path d="M480.618 30.3351H471.891V28.5113H479.118V24.9829H471.891V23.159H480.618V30.3351ZM471.763 35.0152C471.763 34.3447 471.905 33.768 472.189 33.2851C472.476 32.805 472.874 32.4356 473.382 32.1771C473.891 31.9214 474.476 31.7936 475.138 31.7936C475.808 31.7936 476.396 31.9229 476.902 32.1814C477.411 32.4427 477.807 32.8135 478.091 33.2936C478.378 33.7737 478.521 34.3447 478.521 35.0067C478.521 35.5777 478.418 36.0777 478.21 36.5067C478.003 36.9356 477.712 37.2751 477.337 37.5251C476.962 37.7751 476.521 37.9129 476.016 37.9385V36.2254C476.342 36.1771 476.605 36.0493 476.804 35.8419C477.006 35.6374 477.107 35.3689 477.107 35.0365C477.107 34.7552 477.03 34.5095 476.876 34.2993C476.726 34.0919 476.506 33.93 476.216 33.8135C475.926 33.697 475.575 33.6388 475.163 33.6388C474.746 33.6388 474.391 33.6956 474.098 33.8092C473.805 33.9257 473.582 34.0891 473.429 34.2993C473.276 34.5095 473.199 34.7552 473.199 35.0365C473.199 35.2439 473.241 35.43 473.327 35.5947C473.412 35.7624 473.536 35.9001 473.697 36.0081C473.862 36.1189 474.06 36.1913 474.29 36.2254V37.9385C473.79 37.9101 473.349 37.7737 472.969 37.5294C472.591 37.2879 472.295 36.9541 472.082 36.528C471.869 36.1018 471.763 35.5976 471.763 35.0152ZM474.286 40.8351L478.436 43.1917V44.9815H471.891V43.2513H476.054L471.891 40.9033V39.1008H478.436V40.8351H474.286ZM478.436 47.9538L476.148 49.1555L478.436 50.387V52.2492L475.163 50.3529L471.891 52.3003V50.4467L474.153 49.1555L471.891 47.8856V46.0106L475.163 47.9538L478.436 46.0788V47.9538ZM471.763 56.0503C471.763 55.3884 471.903 54.816 472.185 54.333C472.469 53.8529 472.864 53.4822 473.369 53.2208C473.878 52.9594 474.467 52.8288 475.138 52.8288C475.814 52.8288 476.405 52.9594 476.911 53.2208C477.419 53.4822 477.814 53.8529 478.095 54.333C478.379 54.816 478.521 55.3884 478.521 56.0503C478.521 56.7123 478.379 57.2833 478.095 57.7634C477.814 58.2464 477.419 58.6185 476.911 58.8799C476.405 59.1413 475.814 59.2719 475.138 59.2719C474.467 59.2719 473.878 59.1413 473.369 58.8799C472.864 58.6185 472.469 58.2464 472.185 57.7634C471.903 57.2833 471.763 56.7123 471.763 56.0503ZM473.169 56.0589C473.169 56.36 473.254 56.6114 473.425 56.8131C473.598 57.0148 473.834 57.1668 474.132 57.2691C474.43 57.3742 474.77 57.4268 475.151 57.4268C475.531 57.4268 475.871 57.3742 476.169 57.2691C476.467 57.1668 476.703 57.0148 476.876 56.8131C477.05 56.6114 477.136 56.36 477.136 56.0589C477.136 55.7549 477.05 55.4992 476.876 55.2918C476.703 55.0873 476.467 54.9324 476.169 54.8273C475.871 54.7251 475.531 54.6739 475.151 54.6739C474.77 54.6739 474.43 54.7251 474.132 54.8273C473.834 54.9324 473.598 55.0873 473.425 55.2918C473.254 55.4992 473.169 55.7549 473.169 56.0589ZM471.891 60.0688L473.331 60.0603V60.2776C473.331 60.431 473.368 60.5631 473.442 60.6739C473.518 60.7876 473.642 60.8813 473.813 60.9552C473.983 61.029 474.209 61.0873 474.49 61.1299C474.774 61.1725 475.124 61.2009 475.538 61.2151L478.436 61.3217V66.2989H471.891V64.5688H477.009V62.9538L475.01 62.8515C474.462 62.8259 473.99 62.7592 473.595 62.6512C473.2 62.5461 472.876 62.3998 472.624 62.2123C472.374 62.0248 472.189 61.7989 472.07 61.5347C471.95 61.2705 471.891 60.9637 471.891 60.6143V60.0688ZM471.763 70.6636C471.763 70.0017 471.903 69.4293 472.185 68.9463C472.469 68.4662 472.864 68.0954 473.369 67.8341C473.878 67.5727 474.467 67.442 475.138 67.442C475.814 67.442 476.405 67.5727 476.911 67.8341C477.419 68.0954 477.814 68.4662 478.095 68.9463C478.379 69.4293 478.521 70.0017 478.521 70.6636C478.521 71.3256 478.379 71.8966 478.095 72.3767C477.814 72.8596 477.419 73.2318 476.911 73.4932C476.405 73.7545 475.814 73.8852 475.138 73.8852C474.467 73.8852 473.878 73.7545 473.369 73.4932C472.864 73.2318 472.469 72.8596 472.185 72.3767C471.903 71.8966 471.763 71.3256 471.763 70.6636ZM473.169 70.6721C473.169 70.9733 473.254 71.2247 473.425 71.4264C473.598 71.6281 473.834 71.7801 474.132 71.8824C474.43 71.9875 474.77 72.04 475.151 72.04C475.531 72.04 475.871 71.9875 476.169 71.8824C476.467 71.7801 476.703 71.6281 476.876 71.4264C477.05 71.2247 477.136 70.9733 477.136 70.6721C477.136 70.3682 477.05 70.1125 476.876 69.9051C476.703 69.7006 476.467 69.5457 476.169 69.4406C475.871 69.3383 475.531 69.2872 475.151 69.2872C474.77 69.2872 474.43 69.3383 474.132 69.4406C473.834 69.5457 473.598 69.7006 473.425 69.9051C473.254 70.1125 473.169 70.3682 473.169 70.6721ZM478.436 79.5486H477.009V76.8298H471.891V75.0656H478.436V79.5486ZM471.891 80.6555H478.436V82.4708H471.891V80.6555ZM479.28 81.5674C479.28 81.2975 479.369 81.066 479.548 80.8728C479.73 80.6824 479.947 80.5873 480.2 80.5873C480.45 80.5873 480.665 80.6824 480.844 80.8728C481.026 81.066 481.116 81.2975 481.116 81.5674C481.116 81.8373 481.026 82.0674 480.844 82.2577C480.665 82.4509 480.45 82.5475 480.2 82.5475C479.947 82.5475 479.73 82.4509 479.548 82.2577C479.369 82.0674 479.28 81.8373 479.28 81.5674ZM471.891 87.7602H477.013V86.5329C477.013 86.2006 476.936 85.9477 476.783 85.7744C476.629 85.6011 476.447 85.5159 476.237 85.5187C476.024 85.5159 475.844 85.5983 475.696 85.7659C475.551 85.9364 475.479 86.1864 475.479 86.5159V88.3653H474.251V86.5159C474.251 85.9562 474.337 85.4719 474.507 85.0628C474.678 84.6537 474.915 84.3383 475.219 84.1168C475.526 83.8952 475.882 83.7858 476.288 83.7886C476.714 83.7858 477.088 83.8952 477.409 84.1168C477.733 84.3383 477.984 84.6551 478.163 85.067C478.345 85.4818 478.436 85.9704 478.436 86.5329V89.452H471.891V87.7602ZM471.891 83.6011L475.3 85.4207V87.1551L471.891 85.3398V83.6011ZM477.009 93.2989H478.436V99.2307H477.009V97.1214H471.891V95.3913H477.009V93.2989ZM471.767 101.963C471.767 101.546 471.839 101.174 471.984 100.847C472.132 100.52 472.349 100.262 472.636 100.071C472.926 99.8838 473.287 99.79 473.719 99.79C474.082 99.79 474.388 99.8568 474.635 99.9903C474.882 100.124 475.081 100.306 475.232 100.536C475.382 100.766 475.496 101.027 475.572 101.32C475.649 101.615 475.703 101.925 475.734 102.249C475.774 102.63 475.811 102.936 475.845 103.169C475.882 103.402 475.936 103.571 476.007 103.676C476.078 103.782 476.183 103.834 476.322 103.834H476.348C476.618 103.834 476.827 103.749 476.974 103.578C477.122 103.411 477.196 103.172 477.196 102.862C477.196 102.536 477.124 102.276 476.979 102.083C476.837 101.889 476.658 101.762 476.442 101.699L476.578 100.02C476.976 100.105 477.32 100.273 477.609 100.523C477.902 100.773 478.126 101.095 478.283 101.49C478.442 101.888 478.521 102.348 478.521 102.871C478.521 103.235 478.479 103.583 478.393 103.915C478.308 104.25 478.176 104.547 477.997 104.806C477.818 105.067 477.588 105.273 477.307 105.424C477.028 105.574 476.695 105.649 476.305 105.649H471.891V103.928H472.798V103.877C472.594 103.772 472.413 103.631 472.257 103.455C472.104 103.279 471.983 103.067 471.895 102.82C471.81 102.573 471.767 102.287 471.767 101.963ZM473.02 102.483C473.02 102.75 473.072 102.986 473.178 103.191C473.286 103.395 473.43 103.556 473.612 103.672C473.794 103.789 474 103.847 474.23 103.847H474.925C474.888 103.79 474.854 103.712 474.822 103.612C474.794 103.516 474.767 103.407 474.741 103.284C474.719 103.162 474.697 103.04 474.678 102.918C474.661 102.796 474.645 102.685 474.631 102.585C474.599 102.372 474.55 102.186 474.482 102.027C474.413 101.868 474.321 101.745 474.205 101.657C474.091 101.568 473.949 101.524 473.778 101.524C473.531 101.524 473.342 101.614 473.212 101.793C473.084 101.975 473.02 102.205 473.02 102.483ZM471.891 109.835H478.436V112.626C478.436 113.433 478.283 114.071 477.976 114.54C477.669 115.008 477.233 115.243 476.668 115.243C476.313 115.243 476.017 115.111 475.781 114.847C475.545 114.582 475.386 114.216 475.304 113.747C475.276 114.139 475.186 114.473 475.036 114.748C474.888 115.027 474.696 115.239 474.46 115.383C474.224 115.531 473.963 115.605 473.676 115.605C473.304 115.605 472.984 115.506 472.717 115.307C472.45 115.111 472.246 114.822 472.104 114.442C471.962 114.064 471.891 113.602 471.891 113.057V109.835ZM473.25 111.527V113.057C473.25 113.31 473.31 113.507 473.429 113.649C473.551 113.794 473.717 113.866 473.928 113.866C474.161 113.866 474.344 113.794 474.477 113.649C474.611 113.507 474.678 113.31 474.678 113.057V111.527H473.25ZM475.743 111.527V112.665C475.743 112.847 475.768 113.001 475.82 113.129C475.874 113.26 475.95 113.359 476.05 113.427C476.149 113.498 476.267 113.534 476.403 113.534C476.605 113.534 476.763 113.453 476.876 113.291C476.99 113.129 477.047 112.908 477.047 112.626V111.527H475.743ZM473.744 116.413V118.173C473.528 118.181 473.358 118.278 473.233 118.462C473.108 118.647 473.045 118.886 473.045 119.178C473.045 119.474 473.114 119.722 473.25 119.924C473.389 120.126 473.588 120.226 473.847 120.226C474.006 120.226 474.143 120.187 474.26 120.107C474.379 120.028 474.473 119.917 474.541 119.775C474.609 119.633 474.643 119.468 474.643 119.28V118.339H475.832V119.28C475.832 119.562 475.898 119.778 476.028 119.928C476.159 120.082 476.322 120.158 476.518 120.158C476.74 120.158 476.918 120.079 477.051 119.92C477.188 119.763 477.256 119.552 477.256 119.285C477.256 119.015 477.195 118.79 477.072 118.611C476.953 118.435 476.797 118.344 476.604 118.339V116.587C476.996 116.593 477.335 116.711 477.622 116.941C477.909 117.174 478.131 117.486 478.287 117.878C478.443 118.273 478.521 118.715 478.521 119.204C478.521 119.738 478.446 120.198 478.295 120.584C478.148 120.974 477.936 121.272 477.661 121.479C477.385 121.69 477.057 121.795 476.676 121.795C476.33 121.795 476.04 121.681 475.807 121.454C475.574 121.226 475.408 120.908 475.308 120.499H475.24C475.223 120.769 475.151 121.013 475.023 121.232C474.895 121.451 474.719 121.626 474.494 121.756C474.273 121.887 474.01 121.952 473.706 121.952C473.3 121.952 472.952 121.833 472.662 121.594C472.372 121.359 472.149 121.032 471.993 120.614C471.839 120.199 471.763 119.724 471.763 119.187C471.763 118.664 471.838 118.195 471.989 117.78C472.142 117.369 472.366 117.04 472.662 116.796C472.957 116.555 473.318 116.427 473.744 116.413ZM471.767 124.932C471.767 124.514 471.839 124.142 471.984 123.816C472.132 123.489 472.349 123.23 472.636 123.04C472.926 122.853 473.287 122.759 473.719 122.759C474.082 122.759 474.388 122.826 474.635 122.959C474.882 123.093 475.081 123.274 475.232 123.505C475.382 123.735 475.496 123.996 475.572 124.289C475.649 124.584 475.703 124.894 475.734 125.218C475.774 125.598 475.811 125.905 475.845 126.138C475.882 126.371 475.936 126.54 476.007 126.645C476.078 126.75 476.183 126.803 476.322 126.803H476.348C476.618 126.803 476.827 126.718 476.974 126.547C477.122 126.38 477.196 126.141 477.196 125.831C477.196 125.505 477.124 125.245 476.979 125.051C476.837 124.858 476.658 124.73 476.442 124.668L476.578 122.989C476.976 123.074 477.32 123.242 477.609 123.492C477.902 123.742 478.126 124.064 478.283 124.459C478.442 124.857 478.521 125.317 478.521 125.84C478.521 126.203 478.479 126.551 478.393 126.884C478.308 127.219 478.176 127.516 477.997 127.774C477.818 128.036 477.588 128.242 477.307 128.392C477.028 128.543 476.695 128.618 476.305 128.618H471.891V126.897H472.798V126.845C472.594 126.74 472.413 126.6 472.257 126.424C472.104 126.247 471.983 126.036 471.895 125.789C471.81 125.541 471.767 125.256 471.767 124.932ZM473.02 125.452C473.02 125.719 473.072 125.955 473.178 126.159C473.286 126.364 473.43 126.524 473.612 126.641C473.794 126.757 474 126.816 474.23 126.816H474.925C474.888 126.759 474.854 126.681 474.822 126.581C474.794 126.485 474.767 126.375 474.741 126.253C474.719 126.131 474.697 126.009 474.678 125.887C474.661 125.764 474.645 125.654 474.631 125.554C474.599 125.341 474.55 125.155 474.482 124.996C474.413 124.837 474.321 124.713 474.205 124.625C474.091 124.537 473.949 124.493 473.778 124.493C473.531 124.493 473.342 124.583 473.212 124.762C473.084 124.943 473.02 125.174 473.02 125.452ZM475.675 133.291H474.614V130.909H475.675V133.291ZM476.322 135.775L476.037 134.096C476.349 134.014 476.601 133.876 476.791 133.683C476.982 133.492 477.077 133.217 477.077 132.856C477.077 132.532 476.996 132.265 476.834 132.055C476.675 131.845 476.452 131.688 476.165 131.586C475.878 131.487 475.544 131.437 475.163 131.437C474.78 131.437 474.443 131.487 474.153 131.586C473.864 131.686 473.636 131.84 473.472 132.051C473.31 132.261 473.229 132.529 473.229 132.856C473.229 133.083 473.268 133.277 473.348 133.436C473.43 133.598 473.541 133.73 473.68 133.832C473.822 133.934 473.982 134.012 474.158 134.066L473.881 135.754C473.457 135.66 473.087 135.48 472.768 135.213C472.45 134.948 472.203 134.615 472.027 134.211C471.851 133.811 471.763 133.359 471.763 132.856C471.763 132.203 471.908 131.64 472.197 131.169C472.49 130.7 472.892 130.338 473.403 130.082C473.918 129.829 474.504 129.703 475.163 129.703C475.82 129.703 476.401 129.829 476.906 130.082C477.412 130.338 477.807 130.701 478.091 131.173C478.378 131.644 478.521 132.206 478.521 132.856C478.521 133.367 478.43 133.826 478.249 134.233C478.07 134.642 477.815 134.978 477.486 135.242C477.156 135.51 476.768 135.687 476.322 135.775ZM473.898 140.857L478.436 142.63V144.01L471.891 141.458V140.252L478.436 137.759V139.135L473.898 140.857ZM478.436 138.722H471.891V136.987H478.436V138.722ZM471.891 143.081H478.436V144.794H471.891V143.081ZM474.286 147.933L478.436 150.289V152.079H471.891V150.349H476.054L471.891 148.001V146.198H478.436V147.933H474.286ZM475.888 158.09H474.46V154.672H475.888V158.09ZM478.436 155.269H471.891V153.534H478.436V155.269ZM478.436 159.228H471.891V157.506H478.436V159.228ZM474.286 162.37L478.436 164.727V166.517H471.891V164.786H476.054L471.891 162.438V160.636H478.436V162.37H474.286Z" fill="white"/>
<path d="M475.391 312.747L479.391 308.747H476.391V293.747H474.391V308.747H471.391L475.391 312.747Z" fill="white"/>
</svg>
