<svg width="29" height="30" viewBox="0 0 29 30" fill="none" xmlns="http://www.w3.org/2000/svg">
<path d="M21.7601 0.53418H7.30825C3.31562 0.53418 0.0683594 3.92566 0.0683594 8.09563V21.9044C0.0683594 26.0744 3.31562 29.4659 7.30825 29.4659H21.7601C25.7528 29.4659 29 26.0744 29 21.9044V8.09563C29 3.92566 25.7528 0.53418 21.7601 0.53418ZM2.62205 8.09563C2.62205 5.3966 4.724 3.20129 7.30825 3.20129H21.7601C24.3444 3.20129 26.4463 5.3966 26.4463 8.09563V21.9044C26.4463 24.6034 24.3444 26.7987 21.7601 26.7987H7.30825C4.724 26.7987 2.62205 24.6034 2.62205 21.9044V8.09563Z" fill="black"/>
<path d="M14.5328 22.0334C18.2464 22.0334 21.2678 18.8778 21.2678 14.9992C21.2678 11.1207 18.2464 7.96509 14.5328 7.96509C10.8192 7.96509 7.79779 11.1207 7.79779 14.9992C7.79779 18.8778 10.8192 22.0334 14.5328 22.0334ZM14.5328 10.6336C16.8381 10.6336 18.7128 12.5916 18.7128 14.9992C18.7128 17.4068 16.8381 19.3648 14.5328 19.3648C12.2276 19.3648 10.3528 17.4068 10.3528 14.9992C10.3528 12.5916 12.2276 10.6336 14.5328 10.6336Z" fill="black"/>
<path d="M21.8931 9.10046C22.8936 9.10046 23.708 8.24981 23.708 7.20489C23.708 6.15997 22.8936 5.30933 21.8931 5.30933C20.8926 5.30933 20.0781 6.15997 20.0781 7.20489C20.0781 8.24981 20.8926 9.10046 21.8931 9.10046Z" fill="black"/>
</svg>
