<svg width="37" height="28" viewBox="0 0 37 28" fill="none" xmlns="http://www.w3.org/2000/svg">
<path d="M37.0001 2.86196C36.1314 3.71442 34.9275 4.24131 33.5939 4.24131C33.4245 4.24131 33.2552 4.23256 33.0912 4.21505C34.4825 3.4046 35.5565 2.13553 36.0918 0.621403C36.0918 0.621403 36.0935 0.621402 36.0935 0.619651C36.1674 0.4166 36.2305 0.211803 36.281 0C35.1798 1.14304 33.675 1.91673 31.9864 2.10053C31.7269 2.13028 31.4638 2.14429 31.1971 2.14429C31.1124 2.14429 31.0313 2.14253 30.9502 2.13728C30.3789 1.55439 29.6977 1.07302 28.9426 0.719427C28.101 0.320328 27.1602 0.0857674 26.1673 0.0560099C26.0862 0.0507586 26.0051 0.049012 25.9204 0.049012C25.0788 0.049012 24.2715 0.194296 23.5254 0.462113C23.3343 0.53038 23.1487 0.603896 22.9667 0.689668C20.6023 1.76619 18.9659 4.09952 18.9659 6.80395C18.9659 7.35884 19.0362 7.89797 19.1641 8.4126C18.4397 8.3846 17.7224 8.31633 17.0196 8.2148C16.7943 8.17979 16.569 8.14304 16.3455 8.10103C14.5524 7.77719 12.8422 7.22055 11.2527 6.46437C9.83079 5.7887 8.50442 4.95549 7.29878 3.98574C6.28417 3.17354 5.35608 2.26681 4.52709 1.27607C4.49105 1.23405 4.45494 1.1903 4.4207 1.14829C4.37204 1.22005 4.32699 1.29182 4.28554 1.36709C3.70525 2.35259 3.37725 3.49212 3.37725 4.70692C3.37725 4.74368 3.37729 4.78394 3.3791 4.8207C3.39351 5.73093 3.59173 6.59739 3.94676 7.38509C4.09814 7.73518 4.28192 8.06602 4.49277 8.37934C5.11451 9.30883 5.96337 10.0825 6.96536 10.6182C7.01042 10.6462 7.05728 10.6689 7.10413 10.6899C7.03205 10.7039 6.95812 10.7162 6.88423 10.7232C6.67878 10.7494 6.46613 10.7634 6.25348 10.7634C5.1866 10.7634 4.19363 10.4396 3.38086 9.88822C3.37545 9.94599 3.37549 10.0055 3.37549 10.065C3.37549 11.994 4.20809 13.7339 5.54168 14.961C6.57972 15.9237 7.92228 16.5696 9.41446 16.7587C8.87742 16.9495 8.29716 17.0528 7.69344 17.0528C7.03926 17.0528 6.4121 16.932 5.83902 16.7097C6.69324 19.4071 9.23967 21.3851 12.2745 21.4726C10.4201 23.3438 7.81597 24.5061 4.93433 24.5061C3.14299 24.5061 1.4598 24.0563 6.10352e-05 23.2686C3.50885 26.2181 8.0845 28 13.0891 28C24.1489 28 33.1128 19.2933 33.1128 8.55088C33.1128 7.95924 33.0858 7.37459 33.0317 6.79695C34.8609 6.09502 36.3116 4.66141 36.9982 2.86371L37.0001 2.86196Z" fill="black"/>
</svg>
